<mxfile host="65bd71144e">
    <diagram id="Qbf7YIaGKPMNJorOsxVn" name="개념">
        <mxGraphModel dx="2890" dy="750" grid="1" gridSize="10" guides="1" tooltips="1" connect="1" arrows="1" fold="1" page="1" pageScale="1" pageWidth="850" pageHeight="1100" math="0" shadow="0">
            <root>
                <mxCell id="0"/>
                <mxCell id="1" parent="0"/>
                <mxCell id="ccAEgLOh2SmnxEZ9oQwy-1" value="&lt;h1 style=&quot;margin-top: 0px;&quot;&gt;데이터 베이스 설계 단계&lt;/h1&gt;&lt;p&gt;1. 요구사항 분석 - 요구사항 정의서&lt;/p&gt;&lt;p&gt;2. 개념적 설계 - ERD&lt;/p&gt;&lt;p&gt;3. 논리적 설계 - 릴레이션 스키마&amp;nbsp;&lt;/p&gt;&lt;p&gt;4. 물리적 설계 - 테이블 정의서, sql script 작성&lt;/p&gt;&lt;p&gt;5. 구현 - 테이블 작성&lt;/p&gt;&lt;p&gt;&lt;br&gt;&lt;/p&gt;" style="text;html=1;whiteSpace=wrap;overflow=hidden;rounded=0;" vertex="1" parent="1">
                    <mxGeometry x="-1640" width="360" height="180" as="geometry"/>
                </mxCell>
                <mxCell id="ccAEgLOh2SmnxEZ9oQwy-3" value="&lt;h1 style=&quot;margin-top: 0px;&quot;&gt;개념적 설계&lt;/h1&gt;&lt;p&gt;ERD 작성(Entity Relationship Diagram) 작성&lt;/p&gt;&lt;p&gt;데이터베이스 설계의 이해도 높이기&lt;/p&gt;&lt;p&gt;&lt;br&gt;&lt;/p&gt;" style="text;html=1;whiteSpace=wrap;overflow=hidden;rounded=0;" vertex="1" parent="1">
                    <mxGeometry x="-1640" y="200" width="360" height="120" as="geometry"/>
                </mxCell>
                <mxCell id="ccAEgLOh2SmnxEZ9oQwy-4" value="Entity" style="rounded=1;arcSize=10;whiteSpace=wrap;html=1;align=center;" vertex="1" parent="1">
                    <mxGeometry x="-1630" y="390" width="100" height="40" as="geometry"/>
                </mxCell>
                <mxCell id="ccAEgLOh2SmnxEZ9oQwy-5" value="entity = 객체 = 테이블 = 릴레이션&lt;div&gt;&lt;br&gt;&lt;/div&gt;" style="text;html=1;align=center;verticalAlign=middle;whiteSpace=wrap;rounded=0;" vertex="1" parent="1">
                    <mxGeometry x="-1520" y="390" width="200" height="40" as="geometry"/>
                </mxCell>
                <mxCell id="ccAEgLOh2SmnxEZ9oQwy-7" value="Relationship" style="shape=rhombus;perimeter=rhombusPerimeter;whiteSpace=wrap;html=1;align=center;" vertex="1" parent="1">
                    <mxGeometry x="-1640" y="440" width="120" height="60" as="geometry"/>
                </mxCell>
                <mxCell id="ccAEgLOh2SmnxEZ9oQwy-8" value="관계" style="text;html=1;align=center;verticalAlign=middle;whiteSpace=wrap;rounded=0;" vertex="1" parent="1">
                    <mxGeometry x="-1520" y="450" width="200" height="40" as="geometry"/>
                </mxCell>
                <mxCell id="ccAEgLOh2SmnxEZ9oQwy-14" value="속성" style="text;html=1;align=center;verticalAlign=middle;whiteSpace=wrap;rounded=0;" vertex="1" parent="1">
                    <mxGeometry x="-1520" y="520" width="200" height="40" as="geometry"/>
                </mxCell>
                <mxCell id="ccAEgLOh2SmnxEZ9oQwy-15" value="Attribute" style="ellipse;whiteSpace=wrap;html=1;align=center;" vertex="1" parent="1">
                    <mxGeometry x="-1630" y="510" width="100" height="40" as="geometry"/>
                </mxCell>
                <mxCell id="ccAEgLOh2SmnxEZ9oQwy-16" value="키(기본키) 속성" style="text;html=1;align=center;verticalAlign=middle;whiteSpace=wrap;rounded=0;" vertex="1" parent="1">
                    <mxGeometry x="-1520" y="560" width="200" height="40" as="geometry"/>
                </mxCell>
                <mxCell id="ccAEgLOh2SmnxEZ9oQwy-17" value="Attribute" style="ellipse;whiteSpace=wrap;html=1;align=center;fontStyle=4;" vertex="1" parent="1">
                    <mxGeometry x="-1630" y="570" width="100" height="40" as="geometry"/>
                </mxCell>
                <mxCell id="ccAEgLOh2SmnxEZ9oQwy-18" value="Attribute" style="ellipse;shape=doubleEllipse;margin=3;whiteSpace=wrap;html=1;align=center;" vertex="1" parent="1">
                    <mxGeometry x="-1630" y="620" width="100" height="40" as="geometry"/>
                </mxCell>
                <mxCell id="ccAEgLOh2SmnxEZ9oQwy-19" value="multi value (취미 : 야구, 독서, 수영)" style="text;html=1;align=center;verticalAlign=middle;whiteSpace=wrap;rounded=0;" vertex="1" parent="1">
                    <mxGeometry x="-1520" y="620" width="200" height="40" as="geometry"/>
                </mxCell>
                <mxCell id="ccAEgLOh2SmnxEZ9oQwy-20" value="Relationship" style="shape=rhombus;perimeter=rhombusPerimeter;whiteSpace=wrap;html=1;align=center;" vertex="1" parent="1">
                    <mxGeometry x="-1460" y="760" width="120" height="60" as="geometry"/>
                </mxCell>
                <mxCell id="ccAEgLOh2SmnxEZ9oQwy-21" value="User" style="rounded=1;arcSize=10;whiteSpace=wrap;html=1;align=center;" vertex="1" parent="1">
                    <mxGeometry x="-1620" y="770" width="100" height="40" as="geometry"/>
                </mxCell>
                <mxCell id="ccAEgLOh2SmnxEZ9oQwy-28" value="Profile" style="rounded=1;arcSize=10;whiteSpace=wrap;html=1;align=center;" vertex="1" parent="1">
                    <mxGeometry x="-1280" y="770" width="100" height="40" as="geometry"/>
                </mxCell>
                <mxCell id="ccAEgLOh2SmnxEZ9oQwy-38" value="" style="endArrow=none;html=1;rounded=0;exitX=1;exitY=0.5;exitDx=0;exitDy=0;entryX=0;entryY=0.5;entryDx=0;entryDy=0;" edge="1" parent="1" source="ccAEgLOh2SmnxEZ9oQwy-20" target="ccAEgLOh2SmnxEZ9oQwy-28">
                    <mxGeometry relative="1" as="geometry">
                        <mxPoint x="-1410" y="680" as="sourcePoint"/>
                        <mxPoint x="-1250" y="680" as="targetPoint"/>
                    </mxGeometry>
                </mxCell>
                <mxCell id="ccAEgLOh2SmnxEZ9oQwy-39" value="1" style="resizable=0;html=1;whiteSpace=wrap;align=right;verticalAlign=bottom;" connectable="0" vertex="1" parent="ccAEgLOh2SmnxEZ9oQwy-38">
                    <mxGeometry x="1" relative="1" as="geometry">
                        <mxPoint x="-5" as="offset"/>
                    </mxGeometry>
                </mxCell>
                <mxCell id="ccAEgLOh2SmnxEZ9oQwy-41" value="" style="endArrow=none;html=1;rounded=0;entryX=1;entryY=0.5;entryDx=0;entryDy=0;exitX=0;exitY=0.5;exitDx=0;exitDy=0;" edge="1" parent="1" source="ccAEgLOh2SmnxEZ9oQwy-20" target="ccAEgLOh2SmnxEZ9oQwy-21">
                    <mxGeometry relative="1" as="geometry">
                        <mxPoint x="-1410" y="680" as="sourcePoint"/>
                        <mxPoint x="-1250" y="680" as="targetPoint"/>
                    </mxGeometry>
                </mxCell>
                <mxCell id="ccAEgLOh2SmnxEZ9oQwy-42" value="1" style="resizable=0;html=1;whiteSpace=wrap;align=right;verticalAlign=bottom;" connectable="0" vertex="1" parent="ccAEgLOh2SmnxEZ9oQwy-41">
                    <mxGeometry x="1" relative="1" as="geometry">
                        <mxPoint x="10" as="offset"/>
                    </mxGeometry>
                </mxCell>
                <mxCell id="ccAEgLOh2SmnxEZ9oQwy-43" value="Relationship" style="shape=rhombus;perimeter=rhombusPerimeter;whiteSpace=wrap;html=1;align=center;" vertex="1" parent="1">
                    <mxGeometry x="-1460" y="840" width="120" height="60" as="geometry"/>
                </mxCell>
                <mxCell id="ccAEgLOh2SmnxEZ9oQwy-44" value="학과" style="rounded=1;arcSize=10;whiteSpace=wrap;html=1;align=center;" vertex="1" parent="1">
                    <mxGeometry x="-1620" y="850" width="100" height="40" as="geometry"/>
                </mxCell>
                <mxCell id="ccAEgLOh2SmnxEZ9oQwy-45" value="학생" style="rounded=1;arcSize=10;whiteSpace=wrap;html=1;align=center;" vertex="1" parent="1">
                    <mxGeometry x="-1280" y="850" width="100" height="40" as="geometry"/>
                </mxCell>
                <mxCell id="ccAEgLOh2SmnxEZ9oQwy-46" value="" style="endArrow=ERmany;html=1;rounded=0;exitX=1;exitY=0.5;exitDx=0;exitDy=0;entryX=0;entryY=0.5;entryDx=0;entryDy=0;endFill=0;" edge="1" source="ccAEgLOh2SmnxEZ9oQwy-43" target="ccAEgLOh2SmnxEZ9oQwy-45" parent="1">
                    <mxGeometry relative="1" as="geometry">
                        <mxPoint x="-1410" y="760" as="sourcePoint"/>
                        <mxPoint x="-1250" y="760" as="targetPoint"/>
                    </mxGeometry>
                </mxCell>
                <mxCell id="ccAEgLOh2SmnxEZ9oQwy-47" value="N" style="resizable=0;html=1;whiteSpace=wrap;align=right;verticalAlign=bottom;" connectable="0" vertex="1" parent="ccAEgLOh2SmnxEZ9oQwy-46">
                    <mxGeometry x="1" relative="1" as="geometry">
                        <mxPoint x="-5" as="offset"/>
                    </mxGeometry>
                </mxCell>
                <mxCell id="ccAEgLOh2SmnxEZ9oQwy-48" value="" style="endArrow=none;html=1;rounded=0;entryX=1;entryY=0.5;entryDx=0;entryDy=0;exitX=0;exitY=0.5;exitDx=0;exitDy=0;" edge="1" source="ccAEgLOh2SmnxEZ9oQwy-43" target="ccAEgLOh2SmnxEZ9oQwy-44" parent="1">
                    <mxGeometry relative="1" as="geometry">
                        <mxPoint x="-1410" y="760" as="sourcePoint"/>
                        <mxPoint x="-1250" y="760" as="targetPoint"/>
                    </mxGeometry>
                </mxCell>
                <mxCell id="ccAEgLOh2SmnxEZ9oQwy-49" value="1" style="resizable=0;html=1;whiteSpace=wrap;align=right;verticalAlign=bottom;" connectable="0" vertex="1" parent="ccAEgLOh2SmnxEZ9oQwy-48">
                    <mxGeometry x="1" relative="1" as="geometry">
                        <mxPoint x="14" as="offset"/>
                    </mxGeometry>
                </mxCell>
                <mxCell id="ccAEgLOh2SmnxEZ9oQwy-50" value="Relationship" style="shape=rhombus;perimeter=rhombusPerimeter;whiteSpace=wrap;html=1;align=center;" vertex="1" parent="1">
                    <mxGeometry x="-1460" y="920" width="120" height="60" as="geometry"/>
                </mxCell>
                <mxCell id="ccAEgLOh2SmnxEZ9oQwy-51" value="학생" style="rounded=1;arcSize=10;whiteSpace=wrap;html=1;align=center;" vertex="1" parent="1">
                    <mxGeometry x="-1620" y="930" width="100" height="40" as="geometry"/>
                </mxCell>
                <mxCell id="ccAEgLOh2SmnxEZ9oQwy-52" value="과목" style="rounded=1;arcSize=10;whiteSpace=wrap;html=1;align=center;" vertex="1" parent="1">
                    <mxGeometry x="-1280" y="930" width="100" height="40" as="geometry"/>
                </mxCell>
                <mxCell id="ccAEgLOh2SmnxEZ9oQwy-53" value="" style="endArrow=ERmany;html=1;rounded=0;exitX=1;exitY=0.5;exitDx=0;exitDy=0;entryX=0;entryY=0.5;entryDx=0;entryDy=0;endFill=0;" edge="1" source="ccAEgLOh2SmnxEZ9oQwy-50" target="ccAEgLOh2SmnxEZ9oQwy-52" parent="1">
                    <mxGeometry relative="1" as="geometry">
                        <mxPoint x="-1410" y="840" as="sourcePoint"/>
                        <mxPoint x="-1250" y="840" as="targetPoint"/>
                    </mxGeometry>
                </mxCell>
                <mxCell id="ccAEgLOh2SmnxEZ9oQwy-54" value="N" style="resizable=0;html=1;whiteSpace=wrap;align=right;verticalAlign=bottom;" connectable="0" vertex="1" parent="ccAEgLOh2SmnxEZ9oQwy-53">
                    <mxGeometry x="1" relative="1" as="geometry">
                        <mxPoint x="-5" as="offset"/>
                    </mxGeometry>
                </mxCell>
                <mxCell id="ccAEgLOh2SmnxEZ9oQwy-55" value="" style="endArrow=ERmany;html=1;rounded=0;entryX=1;entryY=0.5;entryDx=0;entryDy=0;exitX=0;exitY=0.5;exitDx=0;exitDy=0;endFill=0;" edge="1" source="ccAEgLOh2SmnxEZ9oQwy-50" target="ccAEgLOh2SmnxEZ9oQwy-51" parent="1">
                    <mxGeometry relative="1" as="geometry">
                        <mxPoint x="-1410" y="840" as="sourcePoint"/>
                        <mxPoint x="-1250" y="840" as="targetPoint"/>
                    </mxGeometry>
                </mxCell>
                <mxCell id="ccAEgLOh2SmnxEZ9oQwy-56" value="M" style="resizable=0;html=1;whiteSpace=wrap;align=right;verticalAlign=bottom;" connectable="0" vertex="1" parent="ccAEgLOh2SmnxEZ9oQwy-55">
                    <mxGeometry x="1" relative="1" as="geometry">
                        <mxPoint x="15" as="offset"/>
                    </mxGeometry>
                </mxCell>
                <mxCell id="gQLeDRy-Jhv3SoEyOi1N-6" style="edgeStyle=none;html=1;entryX=0.5;entryY=1;entryDx=0;entryDy=0;endArrow=none;endFill=0;" edge="1" parent="1" source="gQLeDRy-Jhv3SoEyOi1N-8" target="gQLeDRy-Jhv3SoEyOi1N-9">
                    <mxGeometry relative="1" as="geometry"/>
                </mxCell>
                <mxCell id="gQLeDRy-Jhv3SoEyOi1N-7" style="edgeStyle=none;html=1;entryX=0.5;entryY=1;entryDx=0;entryDy=0;endArrow=none;endFill=0;" edge="1" parent="1" source="gQLeDRy-Jhv3SoEyOi1N-8" target="gQLeDRy-Jhv3SoEyOi1N-10">
                    <mxGeometry relative="1" as="geometry"/>
                </mxCell>
                <mxCell id="gQLeDRy-Jhv3SoEyOi1N-8" value="배송지" style="ellipse;whiteSpace=wrap;html=1;align=center;" vertex="1" parent="1">
                    <mxGeometry x="-1130" y="230" width="100" height="40" as="geometry"/>
                </mxCell>
                <mxCell id="gQLeDRy-Jhv3SoEyOi1N-9" value="기본주소" style="ellipse;whiteSpace=wrap;html=1;align=center;" vertex="1" parent="1">
                    <mxGeometry x="-1210" y="160" width="100" height="40" as="geometry"/>
                </mxCell>
                <mxCell id="gQLeDRy-Jhv3SoEyOi1N-10" value="상세주소" style="ellipse;whiteSpace=wrap;html=1;align=center;" vertex="1" parent="1">
                    <mxGeometry x="-1050" y="160" width="100" height="40" as="geometry"/>
                </mxCell>
                <mxCell id="gQLeDRy-Jhv3SoEyOi1N-12" value="복합속성" style="text;html=1;align=center;verticalAlign=middle;whiteSpace=wrap;rounded=0;" vertex="1" parent="1">
                    <mxGeometry x="-1170" y="90" width="220" height="60" as="geometry"/>
                </mxCell>
            </root>
        </mxGraphModel>
    </diagram>
    <diagram id="JrJF6AKVrJTqNXqFZYfB" name="한빛 ERD">
        <mxGraphModel dx="1471" dy="926" grid="1" gridSize="10" guides="1" tooltips="1" connect="1" arrows="1" fold="1" page="1" pageScale="1" pageWidth="850" pageHeight="1100" math="0" shadow="0">
            <root>
                <mxCell id="0"/>
                <mxCell id="1" parent="0"/>
                <mxCell id="2" value="회원" style="rounded=0;whiteSpace=wrap;html=1;" vertex="1" parent="1">
                    <mxGeometry x="240" y="230" width="80" height="40" as="geometry"/>
                </mxCell>
                <mxCell id="-VrtZMWIhvwJJNjz-F4I-7" style="edgeStyle=none;html=1;entryX=0;entryY=0.5;entryDx=0;entryDy=0;endArrow=none;endFill=0;" edge="1" parent="1" source="-VrtZMWIhvwJJNjz-F4I-2" target="2">
                    <mxGeometry relative="1" as="geometry"/>
                </mxCell>
                <mxCell id="-VrtZMWIhvwJJNjz-F4I-2" value="아이디" style="ellipse;whiteSpace=wrap;html=1;align=center;fontStyle=4;" vertex="1" parent="1">
                    <mxGeometry x="20" y="110" width="100" height="40" as="geometry"/>
                </mxCell>
                <mxCell id="-VrtZMWIhvwJJNjz-F4I-8" style="edgeStyle=none;html=1;entryX=0;entryY=0.5;entryDx=0;entryDy=0;endArrow=none;endFill=0;" edge="1" parent="1" source="-VrtZMWIhvwJJNjz-F4I-3" target="2">
                    <mxGeometry relative="1" as="geometry"/>
                </mxCell>
                <mxCell id="-VrtZMWIhvwJJNjz-F4I-3" value="비밀번호" style="ellipse;whiteSpace=wrap;html=1;align=center;" vertex="1" parent="1">
                    <mxGeometry x="20" y="170" width="100" height="40" as="geometry"/>
                </mxCell>
                <mxCell id="-VrtZMWIhvwJJNjz-F4I-10" style="edgeStyle=none;html=1;entryX=0;entryY=0.5;entryDx=0;entryDy=0;endArrow=none;endFill=0;" edge="1" parent="1" source="-VrtZMWIhvwJJNjz-F4I-4" target="2">
                    <mxGeometry relative="1" as="geometry"/>
                </mxCell>
                <mxCell id="-VrtZMWIhvwJJNjz-F4I-4" value="나이" style="ellipse;whiteSpace=wrap;html=1;align=center;" vertex="1" parent="1">
                    <mxGeometry x="20" y="290" width="100" height="40" as="geometry"/>
                </mxCell>
                <mxCell id="-VrtZMWIhvwJJNjz-F4I-9" style="edgeStyle=none;html=1;endArrow=none;endFill=0;" edge="1" parent="1" source="-VrtZMWIhvwJJNjz-F4I-5">
                    <mxGeometry relative="1" as="geometry">
                        <mxPoint x="240" y="250" as="targetPoint"/>
                    </mxGeometry>
                </mxCell>
                <mxCell id="-VrtZMWIhvwJJNjz-F4I-5" value="이름" style="ellipse;whiteSpace=wrap;html=1;align=center;" vertex="1" parent="1">
                    <mxGeometry x="20" y="230" width="100" height="40" as="geometry"/>
                </mxCell>
                <mxCell id="-VrtZMWIhvwJJNjz-F4I-11" style="edgeStyle=none;html=1;entryX=0;entryY=0.5;entryDx=0;entryDy=0;endArrow=none;endFill=0;" edge="1" parent="1" source="-VrtZMWIhvwJJNjz-F4I-6" target="2">
                    <mxGeometry relative="1" as="geometry"/>
                </mxCell>
                <mxCell id="-VrtZMWIhvwJJNjz-F4I-6" value="직업" style="ellipse;whiteSpace=wrap;html=1;align=center;" vertex="1" parent="1">
                    <mxGeometry x="20" y="350" width="100" height="40" as="geometry"/>
                </mxCell>
                <mxCell id="jfLKCsRfH_tHI7IBwAJo-3" style="edgeStyle=none;html=1;entryX=0;entryY=0.5;entryDx=0;entryDy=0;endArrow=none;endFill=0;" edge="1" parent="1" target="jfLKCsRfH_tHI7IBwAJo-2">
                    <mxGeometry relative="1" as="geometry">
                        <mxPoint x="640" y="250" as="sourcePoint"/>
                    </mxGeometry>
                </mxCell>
                <mxCell id="-VrtZMWIhvwJJNjz-F4I-14" value="상품" style="rounded=0;whiteSpace=wrap;html=1;" vertex="1" parent="1">
                    <mxGeometry x="560" y="230" width="80" height="40" as="geometry"/>
                </mxCell>
                <mxCell id="-VrtZMWIhvwJJNjz-F4I-22" style="edgeStyle=none;html=1;entryX=1;entryY=0.5;entryDx=0;entryDy=0;endArrow=none;endFill=0;" edge="1" parent="1" source="-VrtZMWIhvwJJNjz-F4I-15" target="-VrtZMWIhvwJJNjz-F4I-14">
                    <mxGeometry relative="1" as="geometry"/>
                </mxCell>
                <mxCell id="-VrtZMWIhvwJJNjz-F4I-15" value="상품번호" style="ellipse;whiteSpace=wrap;html=1;align=center;fontStyle=4;" vertex="1" parent="1">
                    <mxGeometry x="650" y="90" width="100" height="40" as="geometry"/>
                </mxCell>
                <mxCell id="-VrtZMWIhvwJJNjz-F4I-23" style="edgeStyle=none;html=1;endArrow=none;endFill=0;" edge="1" parent="1" source="-VrtZMWIhvwJJNjz-F4I-18">
                    <mxGeometry relative="1" as="geometry">
                        <mxPoint x="640" y="250" as="targetPoint"/>
                    </mxGeometry>
                </mxCell>
                <mxCell id="-VrtZMWIhvwJJNjz-F4I-18" value="상품명" style="ellipse;whiteSpace=wrap;html=1;align=center;" vertex="1" parent="1">
                    <mxGeometry x="730" y="200" width="100" height="40" as="geometry"/>
                </mxCell>
                <mxCell id="-VrtZMWIhvwJJNjz-F4I-25" style="edgeStyle=none;html=1;entryX=1;entryY=0.5;entryDx=0;entryDy=0;endArrow=none;endFill=0;" edge="1" parent="1" source="-VrtZMWIhvwJJNjz-F4I-19" target="-VrtZMWIhvwJJNjz-F4I-14">
                    <mxGeometry relative="1" as="geometry"/>
                </mxCell>
                <mxCell id="-VrtZMWIhvwJJNjz-F4I-19" value="단가" style="ellipse;whiteSpace=wrap;html=1;align=center;" vertex="1" parent="1">
                    <mxGeometry x="610" y="360" width="100" height="40" as="geometry"/>
                </mxCell>
                <mxCell id="-VrtZMWIhvwJJNjz-F4I-24" style="edgeStyle=none;html=1;entryX=1;entryY=0.5;entryDx=0;entryDy=0;endArrow=none;endFill=0;" edge="1" parent="1" source="-VrtZMWIhvwJJNjz-F4I-20" target="-VrtZMWIhvwJJNjz-F4I-14">
                    <mxGeometry relative="1" as="geometry"/>
                </mxCell>
                <mxCell id="-VrtZMWIhvwJJNjz-F4I-20" value="재고량" style="ellipse;whiteSpace=wrap;html=1;align=center;" vertex="1" parent="1">
                    <mxGeometry x="710" y="340" width="100" height="40" as="geometry"/>
                </mxCell>
                <mxCell id="-VrtZMWIhvwJJNjz-F4I-26" value="제조업체" style="rounded=0;whiteSpace=wrap;html=1;" vertex="1" parent="1">
                    <mxGeometry x="560" y="660" width="80" height="40" as="geometry"/>
                </mxCell>
                <mxCell id="-VrtZMWIhvwJJNjz-F4I-27" style="edgeStyle=none;html=1;entryX=1;entryY=0.5;entryDx=0;entryDy=0;endArrow=none;endFill=0;" edge="1" source="-VrtZMWIhvwJJNjz-F4I-28" target="-VrtZMWIhvwJJNjz-F4I-26" parent="1">
                    <mxGeometry relative="1" as="geometry"/>
                </mxCell>
                <mxCell id="-VrtZMWIhvwJJNjz-F4I-28" value="업체코드" style="ellipse;whiteSpace=wrap;html=1;align=center;fontStyle=4;" vertex="1" parent="1">
                    <mxGeometry x="730" y="540" width="100" height="40" as="geometry"/>
                </mxCell>
                <mxCell id="-VrtZMWIhvwJJNjz-F4I-29" style="edgeStyle=none;html=1;endArrow=none;endFill=0;" edge="1" source="-VrtZMWIhvwJJNjz-F4I-30" parent="1">
                    <mxGeometry relative="1" as="geometry">
                        <mxPoint x="640" y="680" as="targetPoint"/>
                    </mxGeometry>
                </mxCell>
                <mxCell id="-VrtZMWIhvwJJNjz-F4I-30" value="업체명" style="ellipse;whiteSpace=wrap;html=1;align=center;" vertex="1" parent="1">
                    <mxGeometry x="730" y="600" width="100" height="40" as="geometry"/>
                </mxCell>
                <mxCell id="-VrtZMWIhvwJJNjz-F4I-31" style="edgeStyle=none;html=1;entryX=1;entryY=0.5;entryDx=0;entryDy=0;endArrow=none;endFill=0;" edge="1" source="-VrtZMWIhvwJJNjz-F4I-32" target="-VrtZMWIhvwJJNjz-F4I-26" parent="1">
                    <mxGeometry relative="1" as="geometry"/>
                </mxCell>
                <mxCell id="-VrtZMWIhvwJJNjz-F4I-32" value="위치" style="ellipse;whiteSpace=wrap;html=1;align=center;" vertex="1" parent="1">
                    <mxGeometry x="730" y="720" width="100" height="40" as="geometry"/>
                </mxCell>
                <mxCell id="-VrtZMWIhvwJJNjz-F4I-33" style="edgeStyle=none;html=1;entryX=1;entryY=0.5;entryDx=0;entryDy=0;endArrow=none;endFill=0;" edge="1" source="-VrtZMWIhvwJJNjz-F4I-34" target="-VrtZMWIhvwJJNjz-F4I-26" parent="1">
                    <mxGeometry relative="1" as="geometry"/>
                </mxCell>
                <mxCell id="-VrtZMWIhvwJJNjz-F4I-34" value="전화번호" style="ellipse;whiteSpace=wrap;html=1;align=center;" vertex="1" parent="1">
                    <mxGeometry x="730" y="660" width="100" height="40" as="geometry"/>
                </mxCell>
                <mxCell id="-VrtZMWIhvwJJNjz-F4I-36" style="edgeStyle=none;html=1;endArrow=none;endFill=0;" edge="1" parent="1" source="-VrtZMWIhvwJJNjz-F4I-35">
                    <mxGeometry relative="1" as="geometry">
                        <mxPoint x="640" y="680" as="targetPoint"/>
                    </mxGeometry>
                </mxCell>
                <mxCell id="-VrtZMWIhvwJJNjz-F4I-35" value="담당자" style="ellipse;whiteSpace=wrap;html=1;align=center;" vertex="1" parent="1">
                    <mxGeometry x="730" y="780" width="100" height="40" as="geometry"/>
                </mxCell>
                <mxCell id="-VrtZMWIhvwJJNjz-F4I-37" value="게시글" style="rounded=0;whiteSpace=wrap;html=1;" vertex="1" parent="1">
                    <mxGeometry x="240" y="660" width="80" height="40" as="geometry"/>
                </mxCell>
                <mxCell id="-VrtZMWIhvwJJNjz-F4I-38" style="edgeStyle=none;html=1;entryX=0;entryY=0.5;entryDx=0;entryDy=0;endArrow=none;endFill=0;exitX=1;exitY=1;exitDx=0;exitDy=0;" edge="1" source="-VrtZMWIhvwJJNjz-F4I-39" target="-VrtZMWIhvwJJNjz-F4I-37" parent="1">
                    <mxGeometry relative="1" as="geometry"/>
                </mxCell>
                <mxCell id="-VrtZMWIhvwJJNjz-F4I-39" value="글번호" style="ellipse;whiteSpace=wrap;html=1;align=center;fontStyle=4;" vertex="1" parent="1">
                    <mxGeometry x="20" y="570" width="100" height="40" as="geometry"/>
                </mxCell>
                <mxCell id="-VrtZMWIhvwJJNjz-F4I-40" style="edgeStyle=none;html=1;entryX=0;entryY=0.5;entryDx=0;entryDy=0;endArrow=none;endFill=0;" edge="1" source="-VrtZMWIhvwJJNjz-F4I-41" target="-VrtZMWIhvwJJNjz-F4I-37" parent="1">
                    <mxGeometry relative="1" as="geometry"/>
                </mxCell>
                <mxCell id="-VrtZMWIhvwJJNjz-F4I-41" value="제목" style="ellipse;whiteSpace=wrap;html=1;align=center;" vertex="1" parent="1">
                    <mxGeometry x="20" y="630" width="100" height="40" as="geometry"/>
                </mxCell>
                <mxCell id="-VrtZMWIhvwJJNjz-F4I-42" style="edgeStyle=none;html=1;entryX=0;entryY=0.5;entryDx=0;entryDy=0;endArrow=none;endFill=0;" edge="1" source="-VrtZMWIhvwJJNjz-F4I-43" target="-VrtZMWIhvwJJNjz-F4I-37" parent="1">
                    <mxGeometry relative="1" as="geometry"/>
                </mxCell>
                <mxCell id="-VrtZMWIhvwJJNjz-F4I-43" value="작성일" style="ellipse;whiteSpace=wrap;html=1;align=center;" vertex="1" parent="1">
                    <mxGeometry x="20" y="750" width="100" height="40" as="geometry"/>
                </mxCell>
                <mxCell id="-VrtZMWIhvwJJNjz-F4I-44" style="edgeStyle=none;html=1;endArrow=none;endFill=0;" edge="1" source="-VrtZMWIhvwJJNjz-F4I-45" parent="1">
                    <mxGeometry relative="1" as="geometry">
                        <mxPoint x="240" y="680" as="targetPoint"/>
                    </mxGeometry>
                </mxCell>
                <mxCell id="-VrtZMWIhvwJJNjz-F4I-45" value="내용" style="ellipse;whiteSpace=wrap;html=1;align=center;" vertex="1" parent="1">
                    <mxGeometry x="20" y="690" width="100" height="40" as="geometry"/>
                </mxCell>
                <mxCell id="-VrtZMWIhvwJJNjz-F4I-52" value="" style="endArrow=none;html=1;rounded=0;entryX=0;entryY=0.5;entryDx=0;entryDy=0;" edge="1" parent="1" target="-VrtZMWIhvwJJNjz-F4I-14">
                    <mxGeometry relative="1" as="geometry">
                        <mxPoint x="320" y="249.5" as="sourcePoint"/>
                        <mxPoint x="480" y="249.5" as="targetPoint"/>
                    </mxGeometry>
                </mxCell>
                <mxCell id="-VrtZMWIhvwJJNjz-F4I-53" value="M" style="resizable=0;html=1;whiteSpace=wrap;align=left;verticalAlign=bottom;" connectable="0" vertex="1" parent="-VrtZMWIhvwJJNjz-F4I-52">
                    <mxGeometry x="-1" relative="1" as="geometry"/>
                </mxCell>
                <mxCell id="-VrtZMWIhvwJJNjz-F4I-54" value="N" style="resizable=0;html=1;whiteSpace=wrap;align=right;verticalAlign=bottom;" connectable="0" vertex="1" parent="-VrtZMWIhvwJJNjz-F4I-52">
                    <mxGeometry x="1" relative="1" as="geometry"/>
                </mxCell>
                <mxCell id="-VrtZMWIhvwJJNjz-F4I-48" value="주문" style="shape=rhombus;perimeter=rhombusPerimeter;whiteSpace=wrap;html=1;align=center;" vertex="1" parent="1">
                    <mxGeometry x="380" y="220" width="120" height="60" as="geometry"/>
                </mxCell>
                <mxCell id="-VrtZMWIhvwJJNjz-F4I-55" value="공급" style="shape=rhombus;perimeter=rhombusPerimeter;whiteSpace=wrap;html=1;align=center;" vertex="1" parent="1">
                    <mxGeometry x="540" y="440" width="120" height="60" as="geometry"/>
                </mxCell>
                <mxCell id="-VrtZMWIhvwJJNjz-F4I-62" value="" style="shape=link;html=1;rounded=0;exitX=0.5;exitY=1;exitDx=0;exitDy=0;" edge="1" parent="1" source="-VrtZMWIhvwJJNjz-F4I-14" target="-VrtZMWIhvwJJNjz-F4I-55">
                    <mxGeometry relative="1" as="geometry">
                        <mxPoint x="410" y="440" as="sourcePoint"/>
                        <mxPoint x="570" y="440" as="targetPoint"/>
                    </mxGeometry>
                </mxCell>
                <mxCell id="-VrtZMWIhvwJJNjz-F4I-66" value="N" style="edgeLabel;html=1;align=center;verticalAlign=middle;resizable=0;points=[];" vertex="1" connectable="0" parent="-VrtZMWIhvwJJNjz-F4I-62">
                    <mxGeometry x="-0.8" y="-1" relative="1" as="geometry">
                        <mxPoint x="-9" y="-8" as="offset"/>
                    </mxGeometry>
                </mxCell>
                <mxCell id="-VrtZMWIhvwJJNjz-F4I-64" value="" style="endArrow=none;html=1;rounded=0;entryX=0.5;entryY=0;entryDx=0;entryDy=0;exitX=0.5;exitY=1;exitDx=0;exitDy=0;" edge="1" parent="1" source="-VrtZMWIhvwJJNjz-F4I-55" target="-VrtZMWIhvwJJNjz-F4I-26">
                    <mxGeometry relative="1" as="geometry">
                        <mxPoint x="410" y="440" as="sourcePoint"/>
                        <mxPoint x="570" y="440" as="targetPoint"/>
                    </mxGeometry>
                </mxCell>
                <mxCell id="-VrtZMWIhvwJJNjz-F4I-65" value="1" style="resizable=0;html=1;whiteSpace=wrap;align=right;verticalAlign=bottom;" connectable="0" vertex="1" parent="-VrtZMWIhvwJJNjz-F4I-64">
                    <mxGeometry x="1" relative="1" as="geometry"/>
                </mxCell>
                <mxCell id="-VrtZMWIhvwJJNjz-F4I-68" value="" style="endArrow=none;html=1;rounded=0;exitX=0.5;exitY=1;exitDx=0;exitDy=0;entryX=0.5;entryY=0;entryDx=0;entryDy=0;" edge="1" parent="1" source="2" target="-VrtZMWIhvwJJNjz-F4I-37">
                    <mxGeometry relative="1" as="geometry">
                        <mxPoint x="410" y="440" as="sourcePoint"/>
                        <mxPoint x="570" y="440" as="targetPoint"/>
                    </mxGeometry>
                </mxCell>
                <mxCell id="-VrtZMWIhvwJJNjz-F4I-69" value="N" style="resizable=0;html=1;whiteSpace=wrap;align=left;verticalAlign=bottom;" connectable="0" vertex="1" parent="-VrtZMWIhvwJJNjz-F4I-68">
                    <mxGeometry x="-1" relative="1" as="geometry">
                        <mxPoint y="390" as="offset"/>
                    </mxGeometry>
                </mxCell>
                <mxCell id="-VrtZMWIhvwJJNjz-F4I-70" value="1" style="resizable=0;html=1;whiteSpace=wrap;align=right;verticalAlign=bottom;" connectable="0" vertex="1" parent="-VrtZMWIhvwJJNjz-F4I-68">
                    <mxGeometry x="1" relative="1" as="geometry">
                        <mxPoint x="11" y="-369" as="offset"/>
                    </mxGeometry>
                </mxCell>
                <mxCell id="-VrtZMWIhvwJJNjz-F4I-67" value="작성" style="shape=rhombus;perimeter=rhombusPerimeter;whiteSpace=wrap;html=1;align=center;" vertex="1" parent="1">
                    <mxGeometry x="220" y="440" width="120" height="60" as="geometry"/>
                </mxCell>
                <mxCell id="-VrtZMWIhvwJJNjz-F4I-76" style="edgeStyle=none;html=1;entryX=1;entryY=0;entryDx=0;entryDy=0;endArrow=none;endFill=0;" edge="1" parent="1" source="-VrtZMWIhvwJJNjz-F4I-71" target="-VrtZMWIhvwJJNjz-F4I-55">
                    <mxGeometry relative="1" as="geometry"/>
                </mxCell>
                <mxCell id="-VrtZMWIhvwJJNjz-F4I-71" value="공급일자" style="ellipse;whiteSpace=wrap;html=1;align=center;" vertex="1" parent="1">
                    <mxGeometry x="730" y="410" width="100" height="40" as="geometry"/>
                </mxCell>
                <mxCell id="-VrtZMWIhvwJJNjz-F4I-77" style="edgeStyle=none;html=1;entryX=1;entryY=1;entryDx=0;entryDy=0;endArrow=none;endFill=0;" edge="1" parent="1" source="-VrtZMWIhvwJJNjz-F4I-72" target="-VrtZMWIhvwJJNjz-F4I-55">
                    <mxGeometry relative="1" as="geometry"/>
                </mxCell>
                <mxCell id="-VrtZMWIhvwJJNjz-F4I-72" value="공급량" style="ellipse;whiteSpace=wrap;html=1;align=center;" vertex="1" parent="1">
                    <mxGeometry x="730" y="480" width="100" height="40" as="geometry"/>
                </mxCell>
                <mxCell id="-VrtZMWIhvwJJNjz-F4I-81" style="edgeStyle=none;html=1;endArrow=none;endFill=0;" edge="1" parent="1" source="-VrtZMWIhvwJJNjz-F4I-73">
                    <mxGeometry relative="1" as="geometry">
                        <mxPoint x="440" y="220" as="targetPoint"/>
                    </mxGeometry>
                </mxCell>
                <mxCell id="-VrtZMWIhvwJJNjz-F4I-73" value="주문일자" style="ellipse;whiteSpace=wrap;html=1;align=center;" vertex="1" parent="1">
                    <mxGeometry x="540" y="130" width="100" height="40" as="geometry"/>
                </mxCell>
                <mxCell id="-VrtZMWIhvwJJNjz-F4I-79" style="edgeStyle=none;html=1;entryX=0.5;entryY=0;entryDx=0;entryDy=0;endArrow=none;endFill=0;" edge="1" parent="1" source="-VrtZMWIhvwJJNjz-F4I-74" target="-VrtZMWIhvwJJNjz-F4I-48">
                    <mxGeometry relative="1" as="geometry"/>
                </mxCell>
                <mxCell id="-VrtZMWIhvwJJNjz-F4I-74" value="주문수량" style="ellipse;whiteSpace=wrap;html=1;align=center;" vertex="1" parent="1">
                    <mxGeometry x="320" y="80" width="100" height="40" as="geometry"/>
                </mxCell>
                <mxCell id="-VrtZMWIhvwJJNjz-F4I-82" style="edgeStyle=none;html=1;entryX=0.5;entryY=0;entryDx=0;entryDy=0;endArrow=none;endFill=0;" edge="1" parent="1" source="-VrtZMWIhvwJJNjz-F4I-75" target="-VrtZMWIhvwJJNjz-F4I-48">
                    <mxGeometry relative="1" as="geometry"/>
                </mxCell>
                <mxCell id="-VrtZMWIhvwJJNjz-F4I-75" value="주문번호" style="ellipse;whiteSpace=wrap;html=1;align=center;fontStyle=4;" vertex="1" parent="1">
                    <mxGeometry x="240" y="130" width="100" height="40" as="geometry"/>
                </mxCell>
                <mxCell id="-VrtZMWIhvwJJNjz-F4I-80" style="edgeStyle=none;html=1;entryX=0.5;entryY=0;entryDx=0;entryDy=0;endArrow=none;endFill=0;" edge="1" parent="1" source="-VrtZMWIhvwJJNjz-F4I-78" target="-VrtZMWIhvwJJNjz-F4I-48">
                    <mxGeometry relative="1" as="geometry"/>
                </mxCell>
                <mxCell id="M8rj8ZOj0OkdC2IQEwYn-4" style="edgeStyle=none;html=1;entryX=0.5;entryY=1;entryDx=0;entryDy=0;endArrow=none;endFill=0;" edge="1" parent="1" source="-VrtZMWIhvwJJNjz-F4I-78" target="M8rj8ZOj0OkdC2IQEwYn-2">
                    <mxGeometry relative="1" as="geometry"/>
                </mxCell>
                <mxCell id="M8rj8ZOj0OkdC2IQEwYn-5" style="edgeStyle=none;html=1;entryX=0.5;entryY=1;entryDx=0;entryDy=0;endArrow=none;endFill=0;" edge="1" parent="1" source="-VrtZMWIhvwJJNjz-F4I-78" target="M8rj8ZOj0OkdC2IQEwYn-3">
                    <mxGeometry relative="1" as="geometry"/>
                </mxCell>
                <mxCell id="-VrtZMWIhvwJJNjz-F4I-78" value="배송지" style="ellipse;whiteSpace=wrap;html=1;align=center;" vertex="1" parent="1">
                    <mxGeometry x="460" y="80" width="100" height="40" as="geometry"/>
                </mxCell>
                <mxCell id="M8rj8ZOj0OkdC2IQEwYn-2" value="기본주소" style="ellipse;whiteSpace=wrap;html=1;align=center;" vertex="1" parent="1">
                    <mxGeometry x="375" y="20" width="100" height="40" as="geometry"/>
                </mxCell>
                <mxCell id="M8rj8ZOj0OkdC2IQEwYn-3" value="상세주소" style="ellipse;whiteSpace=wrap;html=1;align=center;" vertex="1" parent="1">
                    <mxGeometry x="590" y="20" width="100" height="40" as="geometry"/>
                </mxCell>
                <mxCell id="jfLKCsRfH_tHI7IBwAJo-2" value="상품명" style="ellipse;whiteSpace=wrap;html=1;align=center;" vertex="1" parent="1">
                    <mxGeometry x="720" y="140" width="100" height="40" as="geometry"/>
                </mxCell>
                <mxCell id="jfLKCsRfH_tHI7IBwAJo-5" style="edgeStyle=none;html=1;endArrow=none;endFill=0;" edge="1" parent="1" source="jfLKCsRfH_tHI7IBwAJo-4">
                    <mxGeometry relative="1" as="geometry">
                        <mxPoint x="640" y="250" as="targetPoint"/>
                    </mxGeometry>
                </mxCell>
                <mxCell id="jfLKCsRfH_tHI7IBwAJo-4" value="제품색상" style="ellipse;shape=doubleEllipse;margin=3;whiteSpace=wrap;html=1;align=center;" vertex="1" parent="1">
                    <mxGeometry x="710" y="280" width="100" height="40" as="geometry"/>
                </mxCell>
            </root>
        </mxGraphModel>
    </diagram>
    <diagram id="ktmKI5wgtOtfUzx6x6rt" name="한빛릴레이션">
        <mxGraphModel dx="2100" dy="787" grid="1" gridSize="10" guides="1" tooltips="1" connect="1" arrows="1" fold="1" page="1" pageScale="1" pageWidth="850" pageHeight="1100" math="0" shadow="0">
            <root>
                <mxCell id="0"/>
                <mxCell id="1" parent="0"/>
                <mxCell id="xFrkPqth60PTMveqYik8-1" value="&lt;h1 style=&quot;margin-top: 0px;&quot;&gt;릴레이션 스키마(관계데이터모델)&lt;/h1&gt;&lt;div&gt;1. 모든 개체는 릴레이션으로 변환한다.&lt;/div&gt;&lt;div&gt;2. 다대다 관계는 릴레이션으로 변환한다.&lt;/div&gt;&lt;div&gt;3. 일대다 관계는 외래키로 표현한다. (1쪽이 &lt;span style=&quot;white-space: pre;&quot;&gt;&#x9;&lt;/span&gt;외래키(&lt;span style=&quot;white-space: pre;&quot;&gt;F&lt;/span&gt;K))&lt;/div&gt;&lt;div&gt;4. 일대일 관계는 외래키로 표현한다.&lt;/div&gt;&lt;div&gt;5. 다중값 속성은 릴레이션으로 변환한다.&lt;/div&gt;" style="text;html=1;whiteSpace=wrap;overflow=hidden;rounded=0;" vertex="1" parent="1">
                    <mxGeometry x="40" y="40" width="380" height="140" as="geometry"/>
                </mxCell>
                <mxCell id="xFrkPqth60PTMveqYik8-2" value="회원" style="shape=table;startSize=30;container=1;collapsible=1;childLayout=tableLayout;fixedRows=1;rowLines=0;fontStyle=1;align=center;resizeLast=1;html=1;" vertex="1" parent="1">
                    <mxGeometry x="-30" y="230" width="180" height="180" as="geometry"/>
                </mxCell>
                <mxCell id="xFrkPqth60PTMveqYik8-3" value="" style="shape=tableRow;horizontal=0;startSize=0;swimlaneHead=0;swimlaneBody=0;fillColor=none;collapsible=0;dropTarget=0;points=[[0,0.5],[1,0.5]];portConstraint=eastwest;top=0;left=0;right=0;bottom=1;" vertex="1" parent="xFrkPqth60PTMveqYik8-2">
                    <mxGeometry y="30" width="180" height="30" as="geometry"/>
                </mxCell>
                <mxCell id="xFrkPqth60PTMveqYik8-4" value="PK" style="shape=partialRectangle;connectable=0;fillColor=none;top=0;left=0;bottom=0;right=0;fontStyle=1;overflow=hidden;whiteSpace=wrap;html=1;" vertex="1" parent="xFrkPqth60PTMveqYik8-3">
                    <mxGeometry width="30" height="30" as="geometry">
                        <mxRectangle width="30" height="30" as="alternateBounds"/>
                    </mxGeometry>
                </mxCell>
                <mxCell id="xFrkPqth60PTMveqYik8-5" value="아이디" style="shape=partialRectangle;connectable=0;fillColor=none;top=0;left=0;bottom=0;right=0;align=left;spacingLeft=6;fontStyle=5;overflow=hidden;whiteSpace=wrap;html=1;" vertex="1" parent="xFrkPqth60PTMveqYik8-3">
                    <mxGeometry x="30" width="150" height="30" as="geometry">
                        <mxRectangle width="150" height="30" as="alternateBounds"/>
                    </mxGeometry>
                </mxCell>
                <mxCell id="xFrkPqth60PTMveqYik8-6" value="" style="shape=tableRow;horizontal=0;startSize=0;swimlaneHead=0;swimlaneBody=0;fillColor=none;collapsible=0;dropTarget=0;points=[[0,0.5],[1,0.5]];portConstraint=eastwest;top=0;left=0;right=0;bottom=0;" vertex="1" parent="xFrkPqth60PTMveqYik8-2">
                    <mxGeometry y="60" width="180" height="30" as="geometry"/>
                </mxCell>
                <mxCell id="xFrkPqth60PTMveqYik8-7" value="" style="shape=partialRectangle;connectable=0;fillColor=none;top=0;left=0;bottom=0;right=0;editable=1;overflow=hidden;whiteSpace=wrap;html=1;" vertex="1" parent="xFrkPqth60PTMveqYik8-6">
                    <mxGeometry width="30" height="30" as="geometry">
                        <mxRectangle width="30" height="30" as="alternateBounds"/>
                    </mxGeometry>
                </mxCell>
                <mxCell id="xFrkPqth60PTMveqYik8-8" value="비밀번호" style="shape=partialRectangle;connectable=0;fillColor=none;top=0;left=0;bottom=0;right=0;align=left;spacingLeft=6;overflow=hidden;whiteSpace=wrap;html=1;" vertex="1" parent="xFrkPqth60PTMveqYik8-6">
                    <mxGeometry x="30" width="150" height="30" as="geometry">
                        <mxRectangle width="150" height="30" as="alternateBounds"/>
                    </mxGeometry>
                </mxCell>
                <mxCell id="xFrkPqth60PTMveqYik8-9" value="" style="shape=tableRow;horizontal=0;startSize=0;swimlaneHead=0;swimlaneBody=0;fillColor=none;collapsible=0;dropTarget=0;points=[[0,0.5],[1,0.5]];portConstraint=eastwest;top=0;left=0;right=0;bottom=0;" vertex="1" parent="xFrkPqth60PTMveqYik8-2">
                    <mxGeometry y="90" width="180" height="30" as="geometry"/>
                </mxCell>
                <mxCell id="xFrkPqth60PTMveqYik8-10" value="" style="shape=partialRectangle;connectable=0;fillColor=none;top=0;left=0;bottom=0;right=0;editable=1;overflow=hidden;whiteSpace=wrap;html=1;" vertex="1" parent="xFrkPqth60PTMveqYik8-9">
                    <mxGeometry width="30" height="30" as="geometry">
                        <mxRectangle width="30" height="30" as="alternateBounds"/>
                    </mxGeometry>
                </mxCell>
                <mxCell id="xFrkPqth60PTMveqYik8-11" value="이름" style="shape=partialRectangle;connectable=0;fillColor=none;top=0;left=0;bottom=0;right=0;align=left;spacingLeft=6;overflow=hidden;whiteSpace=wrap;html=1;" vertex="1" parent="xFrkPqth60PTMveqYik8-9">
                    <mxGeometry x="30" width="150" height="30" as="geometry">
                        <mxRectangle width="150" height="30" as="alternateBounds"/>
                    </mxGeometry>
                </mxCell>
                <mxCell id="xFrkPqth60PTMveqYik8-12" value="" style="shape=tableRow;horizontal=0;startSize=0;swimlaneHead=0;swimlaneBody=0;fillColor=none;collapsible=0;dropTarget=0;points=[[0,0.5],[1,0.5]];portConstraint=eastwest;top=0;left=0;right=0;bottom=0;" vertex="1" parent="xFrkPqth60PTMveqYik8-2">
                    <mxGeometry y="120" width="180" height="30" as="geometry"/>
                </mxCell>
                <mxCell id="xFrkPqth60PTMveqYik8-13" value="" style="shape=partialRectangle;connectable=0;fillColor=none;top=0;left=0;bottom=0;right=0;editable=1;overflow=hidden;whiteSpace=wrap;html=1;" vertex="1" parent="xFrkPqth60PTMveqYik8-12">
                    <mxGeometry width="30" height="30" as="geometry">
                        <mxRectangle width="30" height="30" as="alternateBounds"/>
                    </mxGeometry>
                </mxCell>
                <mxCell id="xFrkPqth60PTMveqYik8-14" value="나이" style="shape=partialRectangle;connectable=0;fillColor=none;top=0;left=0;bottom=0;right=0;align=left;spacingLeft=6;overflow=hidden;whiteSpace=wrap;html=1;" vertex="1" parent="xFrkPqth60PTMveqYik8-12">
                    <mxGeometry x="30" width="150" height="30" as="geometry">
                        <mxRectangle width="150" height="30" as="alternateBounds"/>
                    </mxGeometry>
                </mxCell>
                <mxCell id="DAKjso-XnYImnUKXevGE-14" value="" style="shape=tableRow;horizontal=0;startSize=0;swimlaneHead=0;swimlaneBody=0;fillColor=none;collapsible=0;dropTarget=0;points=[[0,0.5],[1,0.5]];portConstraint=eastwest;top=0;left=0;right=0;bottom=0;" vertex="1" parent="xFrkPqth60PTMveqYik8-2">
                    <mxGeometry y="150" width="180" height="30" as="geometry"/>
                </mxCell>
                <mxCell id="DAKjso-XnYImnUKXevGE-15" value="" style="shape=partialRectangle;connectable=0;fillColor=none;top=0;left=0;bottom=0;right=0;editable=1;overflow=hidden;whiteSpace=wrap;html=1;" vertex="1" parent="DAKjso-XnYImnUKXevGE-14">
                    <mxGeometry width="30" height="30" as="geometry">
                        <mxRectangle width="30" height="30" as="alternateBounds"/>
                    </mxGeometry>
                </mxCell>
                <mxCell id="DAKjso-XnYImnUKXevGE-16" value="직업" style="shape=partialRectangle;connectable=0;fillColor=none;top=0;left=0;bottom=0;right=0;align=left;spacingLeft=6;overflow=hidden;whiteSpace=wrap;html=1;" vertex="1" parent="DAKjso-XnYImnUKXevGE-14">
                    <mxGeometry x="30" width="150" height="30" as="geometry">
                        <mxRectangle width="150" height="30" as="alternateBounds"/>
                    </mxGeometry>
                </mxCell>
                <mxCell id="tt92IZA4xG9B2_Qssw3V-33" value="제조업체" style="shape=table;startSize=30;container=1;collapsible=1;childLayout=tableLayout;fixedRows=1;rowLines=0;fontStyle=1;align=center;resizeLast=1;html=1;" vertex="1" parent="1">
                    <mxGeometry x="190" y="480" width="180" height="180" as="geometry"/>
                </mxCell>
                <mxCell id="tt92IZA4xG9B2_Qssw3V-34" value="" style="shape=tableRow;horizontal=0;startSize=0;swimlaneHead=0;swimlaneBody=0;fillColor=none;collapsible=0;dropTarget=0;points=[[0,0.5],[1,0.5]];portConstraint=eastwest;top=0;left=0;right=0;bottom=1;" vertex="1" parent="tt92IZA4xG9B2_Qssw3V-33">
                    <mxGeometry y="30" width="180" height="30" as="geometry"/>
                </mxCell>
                <mxCell id="tt92IZA4xG9B2_Qssw3V-35" value="PK" style="shape=partialRectangle;connectable=0;fillColor=none;top=0;left=0;bottom=0;right=0;fontStyle=1;overflow=hidden;whiteSpace=wrap;html=1;" vertex="1" parent="tt92IZA4xG9B2_Qssw3V-34">
                    <mxGeometry width="30" height="30" as="geometry">
                        <mxRectangle width="30" height="30" as="alternateBounds"/>
                    </mxGeometry>
                </mxCell>
                <mxCell id="tt92IZA4xG9B2_Qssw3V-36" value="업체코드" style="shape=partialRectangle;connectable=0;fillColor=none;top=0;left=0;bottom=0;right=0;align=left;spacingLeft=6;fontStyle=5;overflow=hidden;whiteSpace=wrap;html=1;" vertex="1" parent="tt92IZA4xG9B2_Qssw3V-34">
                    <mxGeometry x="30" width="150" height="30" as="geometry">
                        <mxRectangle width="150" height="30" as="alternateBounds"/>
                    </mxGeometry>
                </mxCell>
                <mxCell id="tt92IZA4xG9B2_Qssw3V-37" value="" style="shape=tableRow;horizontal=0;startSize=0;swimlaneHead=0;swimlaneBody=0;fillColor=none;collapsible=0;dropTarget=0;points=[[0,0.5],[1,0.5]];portConstraint=eastwest;top=0;left=0;right=0;bottom=0;" vertex="1" parent="tt92IZA4xG9B2_Qssw3V-33">
                    <mxGeometry y="60" width="180" height="30" as="geometry"/>
                </mxCell>
                <mxCell id="tt92IZA4xG9B2_Qssw3V-38" value="" style="shape=partialRectangle;connectable=0;fillColor=none;top=0;left=0;bottom=0;right=0;editable=1;overflow=hidden;whiteSpace=wrap;html=1;" vertex="1" parent="tt92IZA4xG9B2_Qssw3V-37">
                    <mxGeometry width="30" height="30" as="geometry">
                        <mxRectangle width="30" height="30" as="alternateBounds"/>
                    </mxGeometry>
                </mxCell>
                <mxCell id="tt92IZA4xG9B2_Qssw3V-39" value="업체명" style="shape=partialRectangle;connectable=0;fillColor=none;top=0;left=0;bottom=0;right=0;align=left;spacingLeft=6;overflow=hidden;whiteSpace=wrap;html=1;" vertex="1" parent="tt92IZA4xG9B2_Qssw3V-37">
                    <mxGeometry x="30" width="150" height="30" as="geometry">
                        <mxRectangle width="150" height="30" as="alternateBounds"/>
                    </mxGeometry>
                </mxCell>
                <mxCell id="tt92IZA4xG9B2_Qssw3V-40" value="" style="shape=tableRow;horizontal=0;startSize=0;swimlaneHead=0;swimlaneBody=0;fillColor=none;collapsible=0;dropTarget=0;points=[[0,0.5],[1,0.5]];portConstraint=eastwest;top=0;left=0;right=0;bottom=0;" vertex="1" parent="tt92IZA4xG9B2_Qssw3V-33">
                    <mxGeometry y="90" width="180" height="30" as="geometry"/>
                </mxCell>
                <mxCell id="tt92IZA4xG9B2_Qssw3V-41" value="" style="shape=partialRectangle;connectable=0;fillColor=none;top=0;left=0;bottom=0;right=0;editable=1;overflow=hidden;whiteSpace=wrap;html=1;" vertex="1" parent="tt92IZA4xG9B2_Qssw3V-40">
                    <mxGeometry width="30" height="30" as="geometry">
                        <mxRectangle width="30" height="30" as="alternateBounds"/>
                    </mxGeometry>
                </mxCell>
                <mxCell id="tt92IZA4xG9B2_Qssw3V-42" value="전화번호" style="shape=partialRectangle;connectable=0;fillColor=none;top=0;left=0;bottom=0;right=0;align=left;spacingLeft=6;overflow=hidden;whiteSpace=wrap;html=1;" vertex="1" parent="tt92IZA4xG9B2_Qssw3V-40">
                    <mxGeometry x="30" width="150" height="30" as="geometry">
                        <mxRectangle width="150" height="30" as="alternateBounds"/>
                    </mxGeometry>
                </mxCell>
                <mxCell id="tt92IZA4xG9B2_Qssw3V-43" value="" style="shape=tableRow;horizontal=0;startSize=0;swimlaneHead=0;swimlaneBody=0;fillColor=none;collapsible=0;dropTarget=0;points=[[0,0.5],[1,0.5]];portConstraint=eastwest;top=0;left=0;right=0;bottom=0;" vertex="1" parent="tt92IZA4xG9B2_Qssw3V-33">
                    <mxGeometry y="120" width="180" height="30" as="geometry"/>
                </mxCell>
                <mxCell id="tt92IZA4xG9B2_Qssw3V-44" value="" style="shape=partialRectangle;connectable=0;fillColor=none;top=0;left=0;bottom=0;right=0;editable=1;overflow=hidden;whiteSpace=wrap;html=1;" vertex="1" parent="tt92IZA4xG9B2_Qssw3V-43">
                    <mxGeometry width="30" height="30" as="geometry">
                        <mxRectangle width="30" height="30" as="alternateBounds"/>
                    </mxGeometry>
                </mxCell>
                <mxCell id="tt92IZA4xG9B2_Qssw3V-45" value="위치" style="shape=partialRectangle;connectable=0;fillColor=none;top=0;left=0;bottom=0;right=0;align=left;spacingLeft=6;overflow=hidden;whiteSpace=wrap;html=1;" vertex="1" parent="tt92IZA4xG9B2_Qssw3V-43">
                    <mxGeometry x="30" width="150" height="30" as="geometry">
                        <mxRectangle width="150" height="30" as="alternateBounds"/>
                    </mxGeometry>
                </mxCell>
                <mxCell id="tt92IZA4xG9B2_Qssw3V-46" value="" style="shape=tableRow;horizontal=0;startSize=0;swimlaneHead=0;swimlaneBody=0;fillColor=none;collapsible=0;dropTarget=0;points=[[0,0.5],[1,0.5]];portConstraint=eastwest;top=0;left=0;right=0;bottom=0;" vertex="1" parent="tt92IZA4xG9B2_Qssw3V-33">
                    <mxGeometry y="150" width="180" height="30" as="geometry"/>
                </mxCell>
                <mxCell id="tt92IZA4xG9B2_Qssw3V-47" value="" style="shape=partialRectangle;connectable=0;fillColor=none;top=0;left=0;bottom=0;right=0;editable=1;overflow=hidden;whiteSpace=wrap;html=1;" vertex="1" parent="tt92IZA4xG9B2_Qssw3V-46">
                    <mxGeometry width="30" height="30" as="geometry">
                        <mxRectangle width="30" height="30" as="alternateBounds"/>
                    </mxGeometry>
                </mxCell>
                <mxCell id="tt92IZA4xG9B2_Qssw3V-48" value="담당자" style="shape=partialRectangle;connectable=0;fillColor=none;top=0;left=0;bottom=0;right=0;align=left;spacingLeft=6;overflow=hidden;whiteSpace=wrap;html=1;" vertex="1" parent="tt92IZA4xG9B2_Qssw3V-46">
                    <mxGeometry x="30" width="150" height="30" as="geometry">
                        <mxRectangle width="150" height="30" as="alternateBounds"/>
                    </mxGeometry>
                </mxCell>
                <mxCell id="Ywu67BzijeB0a9sf-dre-1" value="주문" style="shape=table;startSize=30;container=1;collapsible=1;childLayout=tableLayout;fixedRows=1;rowLines=0;fontStyle=1;align=center;resizeLast=1;html=1;whiteSpace=wrap;" vertex="1" parent="1">
                    <mxGeometry x="-20" y="450" width="180" height="240" as="geometry"/>
                </mxCell>
                <mxCell id="Ywu67BzijeB0a9sf-dre-2" value="" style="shape=tableRow;horizontal=0;startSize=0;swimlaneHead=0;swimlaneBody=0;fillColor=none;collapsible=0;dropTarget=0;points=[[0,0.5],[1,0.5]];portConstraint=eastwest;top=0;left=0;right=0;bottom=0;html=1;" vertex="1" parent="Ywu67BzijeB0a9sf-dre-1">
                    <mxGeometry y="30" width="180" height="30" as="geometry"/>
                </mxCell>
                <mxCell id="Ywu67BzijeB0a9sf-dre-3" value="PK" style="shape=partialRectangle;connectable=0;fillColor=none;top=0;left=0;bottom=0;right=0;fontStyle=1;overflow=hidden;html=1;whiteSpace=wrap;" vertex="1" parent="Ywu67BzijeB0a9sf-dre-2">
                    <mxGeometry width="60" height="30" as="geometry">
                        <mxRectangle width="60" height="30" as="alternateBounds"/>
                    </mxGeometry>
                </mxCell>
                <mxCell id="Ywu67BzijeB0a9sf-dre-4" value="주문번호" style="shape=partialRectangle;connectable=0;fillColor=none;top=0;left=0;bottom=0;right=0;align=left;spacingLeft=6;fontStyle=5;overflow=hidden;html=1;whiteSpace=wrap;" vertex="1" parent="Ywu67BzijeB0a9sf-dre-2">
                    <mxGeometry x="60" width="120" height="30" as="geometry">
                        <mxRectangle width="120" height="30" as="alternateBounds"/>
                    </mxGeometry>
                </mxCell>
                <mxCell id="Ywu67BzijeB0a9sf-dre-5" value="" style="shape=tableRow;horizontal=0;startSize=0;swimlaneHead=0;swimlaneBody=0;fillColor=none;collapsible=0;dropTarget=0;points=[[0,0.5],[1,0.5]];portConstraint=eastwest;top=0;left=0;right=0;bottom=1;html=1;" vertex="1" parent="Ywu67BzijeB0a9sf-dre-1">
                    <mxGeometry y="60" width="180" height="30" as="geometry"/>
                </mxCell>
                <mxCell id="Ywu67BzijeB0a9sf-dre-6" value="FK" style="shape=partialRectangle;connectable=0;fillColor=none;top=0;left=0;bottom=0;right=0;fontStyle=1;overflow=hidden;html=1;whiteSpace=wrap;" vertex="1" parent="Ywu67BzijeB0a9sf-dre-5">
                    <mxGeometry width="60" height="30" as="geometry">
                        <mxRectangle width="60" height="30" as="alternateBounds"/>
                    </mxGeometry>
                </mxCell>
                <mxCell id="Ywu67BzijeB0a9sf-dre-7" value="외래키" style="shape=partialRectangle;connectable=0;fillColor=none;top=0;left=0;bottom=0;right=0;align=left;spacingLeft=6;fontStyle=5;overflow=hidden;html=1;whiteSpace=wrap;" vertex="1" parent="Ywu67BzijeB0a9sf-dre-5">
                    <mxGeometry x="60" width="120" height="30" as="geometry">
                        <mxRectangle width="120" height="30" as="alternateBounds"/>
                    </mxGeometry>
                </mxCell>
                <mxCell id="rnwjZf-loWEMdnsI9Hko-1" value="" style="shape=tableRow;horizontal=0;startSize=0;swimlaneHead=0;swimlaneBody=0;fillColor=none;collapsible=0;dropTarget=0;points=[[0,0.5],[1,0.5]];portConstraint=eastwest;top=0;left=0;right=0;bottom=1;html=1;" vertex="1" parent="Ywu67BzijeB0a9sf-dre-1">
                    <mxGeometry y="90" width="180" height="30" as="geometry"/>
                </mxCell>
                <mxCell id="rnwjZf-loWEMdnsI9Hko-2" value="FK" style="shape=partialRectangle;connectable=0;fillColor=none;top=0;left=0;bottom=0;right=0;fontStyle=1;overflow=hidden;html=1;whiteSpace=wrap;" vertex="1" parent="rnwjZf-loWEMdnsI9Hko-1">
                    <mxGeometry width="60" height="30" as="geometry">
                        <mxRectangle width="60" height="30" as="alternateBounds"/>
                    </mxGeometry>
                </mxCell>
                <mxCell id="rnwjZf-loWEMdnsI9Hko-3" value="회원아이디" style="shape=partialRectangle;connectable=0;fillColor=none;top=0;left=0;bottom=0;right=0;align=left;spacingLeft=6;fontStyle=5;overflow=hidden;html=1;whiteSpace=wrap;" vertex="1" parent="rnwjZf-loWEMdnsI9Hko-1">
                    <mxGeometry x="60" width="120" height="30" as="geometry">
                        <mxRectangle width="120" height="30" as="alternateBounds"/>
                    </mxGeometry>
                </mxCell>
                <mxCell id="Ywu67BzijeB0a9sf-dre-8" value="" style="shape=tableRow;horizontal=0;startSize=0;swimlaneHead=0;swimlaneBody=0;fillColor=none;collapsible=0;dropTarget=0;points=[[0,0.5],[1,0.5]];portConstraint=eastwest;top=0;left=0;right=0;bottom=0;html=1;" vertex="1" parent="Ywu67BzijeB0a9sf-dre-1">
                    <mxGeometry y="120" width="180" height="30" as="geometry"/>
                </mxCell>
                <mxCell id="Ywu67BzijeB0a9sf-dre-9" value="" style="shape=partialRectangle;connectable=0;fillColor=none;top=0;left=0;bottom=0;right=0;editable=1;overflow=hidden;html=1;whiteSpace=wrap;" vertex="1" parent="Ywu67BzijeB0a9sf-dre-8">
                    <mxGeometry width="60" height="30" as="geometry">
                        <mxRectangle width="60" height="30" as="alternateBounds"/>
                    </mxGeometry>
                </mxCell>
                <mxCell id="Ywu67BzijeB0a9sf-dre-10" value="주문수량" style="shape=partialRectangle;connectable=0;fillColor=none;top=0;left=0;bottom=0;right=0;align=left;spacingLeft=6;overflow=hidden;html=1;whiteSpace=wrap;" vertex="1" parent="Ywu67BzijeB0a9sf-dre-8">
                    <mxGeometry x="60" width="120" height="30" as="geometry">
                        <mxRectangle width="120" height="30" as="alternateBounds"/>
                    </mxGeometry>
                </mxCell>
                <mxCell id="Ywu67BzijeB0a9sf-dre-11" value="" style="shape=tableRow;horizontal=0;startSize=0;swimlaneHead=0;swimlaneBody=0;fillColor=none;collapsible=0;dropTarget=0;points=[[0,0.5],[1,0.5]];portConstraint=eastwest;top=0;left=0;right=0;bottom=0;html=1;" vertex="1" parent="Ywu67BzijeB0a9sf-dre-1">
                    <mxGeometry y="150" width="180" height="30" as="geometry"/>
                </mxCell>
                <mxCell id="Ywu67BzijeB0a9sf-dre-12" value="" style="shape=partialRectangle;connectable=0;fillColor=none;top=0;left=0;bottom=0;right=0;editable=1;overflow=hidden;html=1;whiteSpace=wrap;" vertex="1" parent="Ywu67BzijeB0a9sf-dre-11">
                    <mxGeometry width="60" height="30" as="geometry">
                        <mxRectangle width="60" height="30" as="alternateBounds"/>
                    </mxGeometry>
                </mxCell>
                <mxCell id="Ywu67BzijeB0a9sf-dre-13" value="기본주소" style="shape=partialRectangle;connectable=0;fillColor=none;top=0;left=0;bottom=0;right=0;align=left;spacingLeft=6;overflow=hidden;html=1;whiteSpace=wrap;" vertex="1" parent="Ywu67BzijeB0a9sf-dre-11">
                    <mxGeometry x="60" width="120" height="30" as="geometry">
                        <mxRectangle width="120" height="30" as="alternateBounds"/>
                    </mxGeometry>
                </mxCell>
                <mxCell id="Lzdu0IwPvjWwxkI66tg--1" value="" style="shape=tableRow;horizontal=0;startSize=0;swimlaneHead=0;swimlaneBody=0;fillColor=none;collapsible=0;dropTarget=0;points=[[0,0.5],[1,0.5]];portConstraint=eastwest;top=0;left=0;right=0;bottom=0;html=1;" vertex="1" parent="Ywu67BzijeB0a9sf-dre-1">
                    <mxGeometry y="180" width="180" height="30" as="geometry"/>
                </mxCell>
                <mxCell id="Lzdu0IwPvjWwxkI66tg--2" value="" style="shape=partialRectangle;connectable=0;fillColor=none;top=0;left=0;bottom=0;right=0;editable=1;overflow=hidden;html=1;whiteSpace=wrap;" vertex="1" parent="Lzdu0IwPvjWwxkI66tg--1">
                    <mxGeometry width="60" height="30" as="geometry">
                        <mxRectangle width="60" height="30" as="alternateBounds"/>
                    </mxGeometry>
                </mxCell>
                <mxCell id="Lzdu0IwPvjWwxkI66tg--3" value="상세주소" style="shape=partialRectangle;connectable=0;fillColor=none;top=0;left=0;bottom=0;right=0;align=left;spacingLeft=6;overflow=hidden;html=1;whiteSpace=wrap;" vertex="1" parent="Lzdu0IwPvjWwxkI66tg--1">
                    <mxGeometry x="60" width="120" height="30" as="geometry">
                        <mxRectangle width="120" height="30" as="alternateBounds"/>
                    </mxGeometry>
                </mxCell>
                <mxCell id="Ywu67BzijeB0a9sf-dre-14" value="" style="shape=tableRow;horizontal=0;startSize=0;swimlaneHead=0;swimlaneBody=0;fillColor=none;collapsible=0;dropTarget=0;points=[[0,0.5],[1,0.5]];portConstraint=eastwest;top=0;left=0;right=0;bottom=0;html=1;" vertex="1" parent="Ywu67BzijeB0a9sf-dre-1">
                    <mxGeometry y="210" width="180" height="30" as="geometry"/>
                </mxCell>
                <mxCell id="Ywu67BzijeB0a9sf-dre-15" value="" style="shape=partialRectangle;connectable=0;fillColor=none;top=0;left=0;bottom=0;right=0;editable=1;overflow=hidden;html=1;whiteSpace=wrap;" vertex="1" parent="Ywu67BzijeB0a9sf-dre-14">
                    <mxGeometry width="60" height="30" as="geometry">
                        <mxRectangle width="60" height="30" as="alternateBounds"/>
                    </mxGeometry>
                </mxCell>
                <mxCell id="Ywu67BzijeB0a9sf-dre-16" value="주문일자" style="shape=partialRectangle;connectable=0;fillColor=none;top=0;left=0;bottom=0;right=0;align=left;spacingLeft=6;overflow=hidden;html=1;whiteSpace=wrap;" vertex="1" parent="Ywu67BzijeB0a9sf-dre-14">
                    <mxGeometry x="60" width="120" height="30" as="geometry">
                        <mxRectangle width="120" height="30" as="alternateBounds"/>
                    </mxGeometry>
                </mxCell>
                <mxCell id="iW71STkPsL8NdgPsbtjE-1" value="게시글" style="shape=table;startSize=30;container=1;collapsible=1;childLayout=tableLayout;fixedRows=1;rowLines=0;fontStyle=1;align=center;resizeLast=1;html=1;" vertex="1" parent="1">
                    <mxGeometry x="180" y="230" width="180" height="180" as="geometry"/>
                </mxCell>
                <mxCell id="iW71STkPsL8NdgPsbtjE-2" value="" style="shape=tableRow;horizontal=0;startSize=0;swimlaneHead=0;swimlaneBody=0;fillColor=none;collapsible=0;dropTarget=0;points=[[0,0.5],[1,0.5]];portConstraint=eastwest;top=0;left=0;right=0;bottom=1;" vertex="1" parent="iW71STkPsL8NdgPsbtjE-1">
                    <mxGeometry y="30" width="180" height="30" as="geometry"/>
                </mxCell>
                <mxCell id="iW71STkPsL8NdgPsbtjE-3" value="PK" style="shape=partialRectangle;connectable=0;fillColor=none;top=0;left=0;bottom=0;right=0;fontStyle=1;overflow=hidden;whiteSpace=wrap;html=1;" vertex="1" parent="iW71STkPsL8NdgPsbtjE-2">
                    <mxGeometry width="30" height="30" as="geometry">
                        <mxRectangle width="30" height="30" as="alternateBounds"/>
                    </mxGeometry>
                </mxCell>
                <mxCell id="iW71STkPsL8NdgPsbtjE-4" value="글번호" style="shape=partialRectangle;connectable=0;fillColor=none;top=0;left=0;bottom=0;right=0;align=left;spacingLeft=6;fontStyle=5;overflow=hidden;whiteSpace=wrap;html=1;" vertex="1" parent="iW71STkPsL8NdgPsbtjE-2">
                    <mxGeometry x="30" width="150" height="30" as="geometry">
                        <mxRectangle width="150" height="30" as="alternateBounds"/>
                    </mxGeometry>
                </mxCell>
                <mxCell id="iW71STkPsL8NdgPsbtjE-14" value="" style="shape=tableRow;horizontal=0;startSize=0;swimlaneHead=0;swimlaneBody=0;fillColor=none;collapsible=0;dropTarget=0;points=[[0,0.5],[1,0.5]];portConstraint=eastwest;top=0;left=0;right=0;bottom=1;" vertex="1" parent="iW71STkPsL8NdgPsbtjE-1">
                    <mxGeometry y="60" width="180" height="30" as="geometry"/>
                </mxCell>
                <mxCell id="iW71STkPsL8NdgPsbtjE-15" value="FK" style="shape=partialRectangle;connectable=0;fillColor=none;top=0;left=0;bottom=0;right=0;fontStyle=1;overflow=hidden;whiteSpace=wrap;html=1;" vertex="1" parent="iW71STkPsL8NdgPsbtjE-14">
                    <mxGeometry width="30" height="30" as="geometry">
                        <mxRectangle width="30" height="30" as="alternateBounds"/>
                    </mxGeometry>
                </mxCell>
                <mxCell id="iW71STkPsL8NdgPsbtjE-16" value="회원아이디" style="shape=partialRectangle;connectable=0;fillColor=none;top=0;left=0;bottom=0;right=0;align=left;spacingLeft=6;fontStyle=5;overflow=hidden;whiteSpace=wrap;html=1;" vertex="1" parent="iW71STkPsL8NdgPsbtjE-14">
                    <mxGeometry x="30" width="150" height="30" as="geometry">
                        <mxRectangle width="150" height="30" as="alternateBounds"/>
                    </mxGeometry>
                </mxCell>
                <mxCell id="iW71STkPsL8NdgPsbtjE-5" value="" style="shape=tableRow;horizontal=0;startSize=0;swimlaneHead=0;swimlaneBody=0;fillColor=none;collapsible=0;dropTarget=0;points=[[0,0.5],[1,0.5]];portConstraint=eastwest;top=0;left=0;right=0;bottom=0;" vertex="1" parent="iW71STkPsL8NdgPsbtjE-1">
                    <mxGeometry y="90" width="180" height="30" as="geometry"/>
                </mxCell>
                <mxCell id="iW71STkPsL8NdgPsbtjE-6" value="" style="shape=partialRectangle;connectable=0;fillColor=none;top=0;left=0;bottom=0;right=0;editable=1;overflow=hidden;whiteSpace=wrap;html=1;" vertex="1" parent="iW71STkPsL8NdgPsbtjE-5">
                    <mxGeometry width="30" height="30" as="geometry">
                        <mxRectangle width="30" height="30" as="alternateBounds"/>
                    </mxGeometry>
                </mxCell>
                <mxCell id="iW71STkPsL8NdgPsbtjE-7" value="제목" style="shape=partialRectangle;connectable=0;fillColor=none;top=0;left=0;bottom=0;right=0;align=left;spacingLeft=6;overflow=hidden;whiteSpace=wrap;html=1;" vertex="1" parent="iW71STkPsL8NdgPsbtjE-5">
                    <mxGeometry x="30" width="150" height="30" as="geometry">
                        <mxRectangle width="150" height="30" as="alternateBounds"/>
                    </mxGeometry>
                </mxCell>
                <mxCell id="iW71STkPsL8NdgPsbtjE-8" value="" style="shape=tableRow;horizontal=0;startSize=0;swimlaneHead=0;swimlaneBody=0;fillColor=none;collapsible=0;dropTarget=0;points=[[0,0.5],[1,0.5]];portConstraint=eastwest;top=0;left=0;right=0;bottom=0;" vertex="1" parent="iW71STkPsL8NdgPsbtjE-1">
                    <mxGeometry y="120" width="180" height="30" as="geometry"/>
                </mxCell>
                <mxCell id="iW71STkPsL8NdgPsbtjE-9" value="" style="shape=partialRectangle;connectable=0;fillColor=none;top=0;left=0;bottom=0;right=0;editable=1;overflow=hidden;whiteSpace=wrap;html=1;" vertex="1" parent="iW71STkPsL8NdgPsbtjE-8">
                    <mxGeometry width="30" height="30" as="geometry">
                        <mxRectangle width="30" height="30" as="alternateBounds"/>
                    </mxGeometry>
                </mxCell>
                <mxCell id="iW71STkPsL8NdgPsbtjE-10" value="내용" style="shape=partialRectangle;connectable=0;fillColor=none;top=0;left=0;bottom=0;right=0;align=left;spacingLeft=6;overflow=hidden;whiteSpace=wrap;html=1;" vertex="1" parent="iW71STkPsL8NdgPsbtjE-8">
                    <mxGeometry x="30" width="150" height="30" as="geometry">
                        <mxRectangle width="150" height="30" as="alternateBounds"/>
                    </mxGeometry>
                </mxCell>
                <mxCell id="iW71STkPsL8NdgPsbtjE-11" value="" style="shape=tableRow;horizontal=0;startSize=0;swimlaneHead=0;swimlaneBody=0;fillColor=none;collapsible=0;dropTarget=0;points=[[0,0.5],[1,0.5]];portConstraint=eastwest;top=0;left=0;right=0;bottom=0;" vertex="1" parent="iW71STkPsL8NdgPsbtjE-1">
                    <mxGeometry y="150" width="180" height="30" as="geometry"/>
                </mxCell>
                <mxCell id="iW71STkPsL8NdgPsbtjE-12" value="" style="shape=partialRectangle;connectable=0;fillColor=none;top=0;left=0;bottom=0;right=0;editable=1;overflow=hidden;whiteSpace=wrap;html=1;" vertex="1" parent="iW71STkPsL8NdgPsbtjE-11">
                    <mxGeometry width="30" height="30" as="geometry">
                        <mxRectangle width="30" height="30" as="alternateBounds"/>
                    </mxGeometry>
                </mxCell>
                <mxCell id="iW71STkPsL8NdgPsbtjE-13" value="작성일" style="shape=partialRectangle;connectable=0;fillColor=none;top=0;left=0;bottom=0;right=0;align=left;spacingLeft=6;overflow=hidden;whiteSpace=wrap;html=1;" vertex="1" parent="iW71STkPsL8NdgPsbtjE-11">
                    <mxGeometry x="30" width="150" height="30" as="geometry">
                        <mxRectangle width="150" height="30" as="alternateBounds"/>
                    </mxGeometry>
                </mxCell>
                <mxCell id="M8Z5ghZiA6J1HMbnSobR-1" value="상품" style="shape=table;startSize=30;container=1;collapsible=1;childLayout=tableLayout;fixedRows=1;rowLines=0;fontStyle=1;align=center;resizeLast=1;html=1;" vertex="1" parent="1">
                    <mxGeometry x="-30" y="720" width="180" height="240" as="geometry"/>
                </mxCell>
                <mxCell id="M8Z5ghZiA6J1HMbnSobR-2" value="" style="shape=tableRow;horizontal=0;startSize=0;swimlaneHead=0;swimlaneBody=0;fillColor=none;collapsible=0;dropTarget=0;points=[[0,0.5],[1,0.5]];portConstraint=eastwest;top=0;left=0;right=0;bottom=1;" vertex="1" parent="M8Z5ghZiA6J1HMbnSobR-1">
                    <mxGeometry y="30" width="180" height="30" as="geometry"/>
                </mxCell>
                <mxCell id="M8Z5ghZiA6J1HMbnSobR-3" value="PK" style="shape=partialRectangle;connectable=0;fillColor=none;top=0;left=0;bottom=0;right=0;fontStyle=1;overflow=hidden;whiteSpace=wrap;html=1;" vertex="1" parent="M8Z5ghZiA6J1HMbnSobR-2">
                    <mxGeometry width="30" height="30" as="geometry">
                        <mxRectangle width="30" height="30" as="alternateBounds"/>
                    </mxGeometry>
                </mxCell>
                <mxCell id="M8Z5ghZiA6J1HMbnSobR-4" value="상품번호" style="shape=partialRectangle;connectable=0;fillColor=none;top=0;left=0;bottom=0;right=0;align=left;spacingLeft=6;fontStyle=5;overflow=hidden;whiteSpace=wrap;html=1;" vertex="1" parent="M8Z5ghZiA6J1HMbnSobR-2">
                    <mxGeometry x="30" width="150" height="30" as="geometry">
                        <mxRectangle width="150" height="30" as="alternateBounds"/>
                    </mxGeometry>
                </mxCell>
                <mxCell id="M8Z5ghZiA6J1HMbnSobR-5" value="" style="shape=tableRow;horizontal=0;startSize=0;swimlaneHead=0;swimlaneBody=0;fillColor=none;collapsible=0;dropTarget=0;points=[[0,0.5],[1,0.5]];portConstraint=eastwest;top=0;left=0;right=0;bottom=1;" vertex="1" parent="M8Z5ghZiA6J1HMbnSobR-1">
                    <mxGeometry y="60" width="180" height="30" as="geometry"/>
                </mxCell>
                <mxCell id="M8Z5ghZiA6J1HMbnSobR-6" value="FK" style="shape=partialRectangle;connectable=0;fillColor=none;top=0;left=0;bottom=0;right=0;fontStyle=1;overflow=hidden;whiteSpace=wrap;html=1;" vertex="1" parent="M8Z5ghZiA6J1HMbnSobR-5">
                    <mxGeometry width="30" height="30" as="geometry">
                        <mxRectangle width="30" height="30" as="alternateBounds"/>
                    </mxGeometry>
                </mxCell>
                <mxCell id="M8Z5ghZiA6J1HMbnSobR-7" value="업체코드" style="shape=partialRectangle;connectable=0;fillColor=none;top=0;left=0;bottom=0;right=0;align=left;spacingLeft=6;fontStyle=5;overflow=hidden;whiteSpace=wrap;html=1;" vertex="1" parent="M8Z5ghZiA6J1HMbnSobR-5">
                    <mxGeometry x="30" width="150" height="30" as="geometry">
                        <mxRectangle width="150" height="30" as="alternateBounds"/>
                    </mxGeometry>
                </mxCell>
                <mxCell id="M8Z5ghZiA6J1HMbnSobR-8" value="" style="shape=tableRow;horizontal=0;startSize=0;swimlaneHead=0;swimlaneBody=0;fillColor=none;collapsible=0;dropTarget=0;points=[[0,0.5],[1,0.5]];portConstraint=eastwest;top=0;left=0;right=0;bottom=0;" vertex="1" parent="M8Z5ghZiA6J1HMbnSobR-1">
                    <mxGeometry y="90" width="180" height="30" as="geometry"/>
                </mxCell>
                <mxCell id="M8Z5ghZiA6J1HMbnSobR-9" value="" style="shape=partialRectangle;connectable=0;fillColor=none;top=0;left=0;bottom=0;right=0;editable=1;overflow=hidden;whiteSpace=wrap;html=1;" vertex="1" parent="M8Z5ghZiA6J1HMbnSobR-8">
                    <mxGeometry width="30" height="30" as="geometry">
                        <mxRectangle width="30" height="30" as="alternateBounds"/>
                    </mxGeometry>
                </mxCell>
                <mxCell id="M8Z5ghZiA6J1HMbnSobR-10" value="상품명" style="shape=partialRectangle;connectable=0;fillColor=none;top=0;left=0;bottom=0;right=0;align=left;spacingLeft=6;overflow=hidden;whiteSpace=wrap;html=1;" vertex="1" parent="M8Z5ghZiA6J1HMbnSobR-8">
                    <mxGeometry x="30" width="150" height="30" as="geometry">
                        <mxRectangle width="150" height="30" as="alternateBounds"/>
                    </mxGeometry>
                </mxCell>
                <mxCell id="M8Z5ghZiA6J1HMbnSobR-11" value="" style="shape=tableRow;horizontal=0;startSize=0;swimlaneHead=0;swimlaneBody=0;fillColor=none;collapsible=0;dropTarget=0;points=[[0,0.5],[1,0.5]];portConstraint=eastwest;top=0;left=0;right=0;bottom=0;" vertex="1" parent="M8Z5ghZiA6J1HMbnSobR-1">
                    <mxGeometry y="120" width="180" height="30" as="geometry"/>
                </mxCell>
                <mxCell id="M8Z5ghZiA6J1HMbnSobR-12" value="" style="shape=partialRectangle;connectable=0;fillColor=none;top=0;left=0;bottom=0;right=0;editable=1;overflow=hidden;whiteSpace=wrap;html=1;" vertex="1" parent="M8Z5ghZiA6J1HMbnSobR-11">
                    <mxGeometry width="30" height="30" as="geometry">
                        <mxRectangle width="30" height="30" as="alternateBounds"/>
                    </mxGeometry>
                </mxCell>
                <mxCell id="M8Z5ghZiA6J1HMbnSobR-13" value="재고량" style="shape=partialRectangle;connectable=0;fillColor=none;top=0;left=0;bottom=0;right=0;align=left;spacingLeft=6;overflow=hidden;whiteSpace=wrap;html=1;" vertex="1" parent="M8Z5ghZiA6J1HMbnSobR-11">
                    <mxGeometry x="30" width="150" height="30" as="geometry">
                        <mxRectangle width="150" height="30" as="alternateBounds"/>
                    </mxGeometry>
                </mxCell>
                <mxCell id="M8Z5ghZiA6J1HMbnSobR-14" value="" style="shape=tableRow;horizontal=0;startSize=0;swimlaneHead=0;swimlaneBody=0;fillColor=none;collapsible=0;dropTarget=0;points=[[0,0.5],[1,0.5]];portConstraint=eastwest;top=0;left=0;right=0;bottom=0;" vertex="1" parent="M8Z5ghZiA6J1HMbnSobR-1">
                    <mxGeometry y="150" width="180" height="30" as="geometry"/>
                </mxCell>
                <mxCell id="M8Z5ghZiA6J1HMbnSobR-15" value="" style="shape=partialRectangle;connectable=0;fillColor=none;top=0;left=0;bottom=0;right=0;editable=1;overflow=hidden;whiteSpace=wrap;html=1;" vertex="1" parent="M8Z5ghZiA6J1HMbnSobR-14">
                    <mxGeometry width="30" height="30" as="geometry">
                        <mxRectangle width="30" height="30" as="alternateBounds"/>
                    </mxGeometry>
                </mxCell>
                <mxCell id="M8Z5ghZiA6J1HMbnSobR-16" value="단가" style="shape=partialRectangle;connectable=0;fillColor=none;top=0;left=0;bottom=0;right=0;align=left;spacingLeft=6;overflow=hidden;whiteSpace=wrap;html=1;" vertex="1" parent="M8Z5ghZiA6J1HMbnSobR-14">
                    <mxGeometry x="30" width="150" height="30" as="geometry">
                        <mxRectangle width="150" height="30" as="alternateBounds"/>
                    </mxGeometry>
                </mxCell>
                <mxCell id="B4ZZ3dw9nK4qmDAY9jwr-17" value="" style="shape=tableRow;horizontal=0;startSize=0;swimlaneHead=0;swimlaneBody=0;fillColor=none;collapsible=0;dropTarget=0;points=[[0,0.5],[1,0.5]];portConstraint=eastwest;top=0;left=0;right=0;bottom=0;" vertex="1" parent="M8Z5ghZiA6J1HMbnSobR-1">
                    <mxGeometry y="180" width="180" height="30" as="geometry"/>
                </mxCell>
                <mxCell id="B4ZZ3dw9nK4qmDAY9jwr-18" value="" style="shape=partialRectangle;connectable=0;fillColor=none;top=0;left=0;bottom=0;right=0;editable=1;overflow=hidden;whiteSpace=wrap;html=1;" vertex="1" parent="B4ZZ3dw9nK4qmDAY9jwr-17">
                    <mxGeometry width="30" height="30" as="geometry">
                        <mxRectangle width="30" height="30" as="alternateBounds"/>
                    </mxGeometry>
                </mxCell>
                <mxCell id="B4ZZ3dw9nK4qmDAY9jwr-19" value="공급일자" style="shape=partialRectangle;connectable=0;fillColor=none;top=0;left=0;bottom=0;right=0;align=left;spacingLeft=6;overflow=hidden;whiteSpace=wrap;html=1;" vertex="1" parent="B4ZZ3dw9nK4qmDAY9jwr-17">
                    <mxGeometry x="30" width="150" height="30" as="geometry">
                        <mxRectangle width="150" height="30" as="alternateBounds"/>
                    </mxGeometry>
                </mxCell>
                <mxCell id="B4ZZ3dw9nK4qmDAY9jwr-20" value="" style="shape=tableRow;horizontal=0;startSize=0;swimlaneHead=0;swimlaneBody=0;fillColor=none;collapsible=0;dropTarget=0;points=[[0,0.5],[1,0.5]];portConstraint=eastwest;top=0;left=0;right=0;bottom=0;" vertex="1" parent="M8Z5ghZiA6J1HMbnSobR-1">
                    <mxGeometry y="210" width="180" height="30" as="geometry"/>
                </mxCell>
                <mxCell id="B4ZZ3dw9nK4qmDAY9jwr-21" value="" style="shape=partialRectangle;connectable=0;fillColor=none;top=0;left=0;bottom=0;right=0;editable=1;overflow=hidden;whiteSpace=wrap;html=1;" vertex="1" parent="B4ZZ3dw9nK4qmDAY9jwr-20">
                    <mxGeometry width="30" height="30" as="geometry">
                        <mxRectangle width="30" height="30" as="alternateBounds"/>
                    </mxGeometry>
                </mxCell>
                <mxCell id="B4ZZ3dw9nK4qmDAY9jwr-22" value="공급량" style="shape=partialRectangle;connectable=0;fillColor=none;top=0;left=0;bottom=0;right=0;align=left;spacingLeft=6;overflow=hidden;whiteSpace=wrap;html=1;" vertex="1" parent="B4ZZ3dw9nK4qmDAY9jwr-20">
                    <mxGeometry x="30" width="150" height="30" as="geometry">
                        <mxRectangle width="150" height="30" as="alternateBounds"/>
                    </mxGeometry>
                </mxCell>
                <mxCell id="FAbEOTirLN3pBCQ9GjuL-1" value="상품색상" style="shape=table;startSize=30;container=1;collapsible=1;childLayout=tableLayout;fixedRows=1;rowLines=0;fontStyle=1;align=center;resizeLast=1;html=1;" vertex="1" parent="1">
                    <mxGeometry x="190" y="730" width="180" height="120" as="geometry"/>
                </mxCell>
                <mxCell id="FAbEOTirLN3pBCQ9GjuL-2" value="" style="shape=tableRow;horizontal=0;startSize=0;swimlaneHead=0;swimlaneBody=0;fillColor=none;collapsible=0;dropTarget=0;points=[[0,0.5],[1,0.5]];portConstraint=eastwest;top=0;left=0;right=0;bottom=1;" vertex="1" parent="FAbEOTirLN3pBCQ9GjuL-1">
                    <mxGeometry y="30" width="180" height="30" as="geometry"/>
                </mxCell>
                <mxCell id="FAbEOTirLN3pBCQ9GjuL-3" value="PK" style="shape=partialRectangle;connectable=0;fillColor=none;top=0;left=0;bottom=0;right=0;fontStyle=1;overflow=hidden;whiteSpace=wrap;html=1;" vertex="1" parent="FAbEOTirLN3pBCQ9GjuL-2">
                    <mxGeometry width="30" height="30" as="geometry">
                        <mxRectangle width="30" height="30" as="alternateBounds"/>
                    </mxGeometry>
                </mxCell>
                <mxCell id="FAbEOTirLN3pBCQ9GjuL-4" value="NO" style="shape=partialRectangle;connectable=0;fillColor=none;top=0;left=0;bottom=0;right=0;align=left;spacingLeft=6;fontStyle=5;overflow=hidden;whiteSpace=wrap;html=1;" vertex="1" parent="FAbEOTirLN3pBCQ9GjuL-2">
                    <mxGeometry x="30" width="150" height="30" as="geometry">
                        <mxRectangle width="150" height="30" as="alternateBounds"/>
                    </mxGeometry>
                </mxCell>
                <mxCell id="FAbEOTirLN3pBCQ9GjuL-17" value="" style="shape=tableRow;horizontal=0;startSize=0;swimlaneHead=0;swimlaneBody=0;fillColor=none;collapsible=0;dropTarget=0;points=[[0,0.5],[1,0.5]];portConstraint=eastwest;top=0;left=0;right=0;bottom=1;" vertex="1" parent="FAbEOTirLN3pBCQ9GjuL-1">
                    <mxGeometry y="60" width="180" height="30" as="geometry"/>
                </mxCell>
                <mxCell id="FAbEOTirLN3pBCQ9GjuL-18" value="FK" style="shape=partialRectangle;connectable=0;fillColor=none;top=0;left=0;bottom=0;right=0;fontStyle=1;overflow=hidden;whiteSpace=wrap;html=1;" vertex="1" parent="FAbEOTirLN3pBCQ9GjuL-17">
                    <mxGeometry width="30" height="30" as="geometry">
                        <mxRectangle width="30" height="30" as="alternateBounds"/>
                    </mxGeometry>
                </mxCell>
                <mxCell id="FAbEOTirLN3pBCQ9GjuL-19" value="상품번호" style="shape=partialRectangle;connectable=0;fillColor=none;top=0;left=0;bottom=0;right=0;align=left;spacingLeft=6;fontStyle=5;overflow=hidden;whiteSpace=wrap;html=1;" vertex="1" parent="FAbEOTirLN3pBCQ9GjuL-17">
                    <mxGeometry x="30" width="150" height="30" as="geometry">
                        <mxRectangle width="150" height="30" as="alternateBounds"/>
                    </mxGeometry>
                </mxCell>
                <mxCell id="FAbEOTirLN3pBCQ9GjuL-5" value="" style="shape=tableRow;horizontal=0;startSize=0;swimlaneHead=0;swimlaneBody=0;fillColor=none;collapsible=0;dropTarget=0;points=[[0,0.5],[1,0.5]];portConstraint=eastwest;top=0;left=0;right=0;bottom=0;" vertex="1" parent="FAbEOTirLN3pBCQ9GjuL-1">
                    <mxGeometry y="90" width="180" height="30" as="geometry"/>
                </mxCell>
                <mxCell id="FAbEOTirLN3pBCQ9GjuL-6" value="" style="shape=partialRectangle;connectable=0;fillColor=none;top=0;left=0;bottom=0;right=0;editable=1;overflow=hidden;whiteSpace=wrap;html=1;" vertex="1" parent="FAbEOTirLN3pBCQ9GjuL-5">
                    <mxGeometry width="30" height="30" as="geometry">
                        <mxRectangle width="30" height="30" as="alternateBounds"/>
                    </mxGeometry>
                </mxCell>
                <mxCell id="FAbEOTirLN3pBCQ9GjuL-7" value="색상" style="shape=partialRectangle;connectable=0;fillColor=none;top=0;left=0;bottom=0;right=0;align=left;spacingLeft=6;overflow=hidden;whiteSpace=wrap;html=1;" vertex="1" parent="FAbEOTirLN3pBCQ9GjuL-5">
                    <mxGeometry x="30" width="150" height="30" as="geometry">
                        <mxRectangle width="150" height="30" as="alternateBounds"/>
                    </mxGeometry>
                </mxCell>
            </root>
        </mxGraphModel>
    </diagram>
    <diagram id="uzWWnm7M4ZN_EVh7XhvO" name="학사ERD">
        <mxGraphModel dx="2100" dy="1887" grid="1" gridSize="10" guides="1" tooltips="1" connect="1" arrows="1" fold="1" page="1" pageScale="1" pageWidth="850" pageHeight="1100" math="0" shadow="0">
            <root>
                <mxCell id="0"/>
                <mxCell id="1" parent="0"/>
                <mxCell id="tRbnyI7l5Zz59n7MLX0Z-17" style="edgeStyle=none;html=1;entryX=0;entryY=0.5;entryDx=0;entryDy=0;endArrow=none;endFill=0;" edge="1" parent="1" source="gRS09DkV2t1ea3CDnBU3-8">
                    <mxGeometry relative="1" as="geometry">
                        <mxPoint x="270" y="119.5" as="sourcePoint"/>
                        <mxPoint x="580" y="119.5" as="targetPoint"/>
                    </mxGeometry>
                </mxCell>
                <mxCell id="tRbnyI7l5Zz59n7MLX0Z-19" value="1" style="edgeLabel;html=1;align=center;verticalAlign=middle;resizable=0;points=[];" vertex="1" connectable="0" parent="tRbnyI7l5Zz59n7MLX0Z-17">
                    <mxGeometry x="0.9097" y="-3" relative="1" as="geometry">
                        <mxPoint y="8" as="offset"/>
                    </mxGeometry>
                </mxCell>
                <mxCell id="tRbnyI7l5Zz59n7MLX0Z-1" value="학생" style="whiteSpace=wrap;html=1;align=center;" vertex="1" parent="1">
                    <mxGeometry x="170" y="100" width="100" height="40" as="geometry"/>
                </mxCell>
                <mxCell id="tRbnyI7l5Zz59n7MLX0Z-8" style="edgeStyle=none;html=1;entryX=0;entryY=0.5;entryDx=0;entryDy=0;endArrow=none;endFill=0;exitX=1;exitY=0.5;exitDx=0;exitDy=0;" edge="1" parent="1" source="tRbnyI7l5Zz59n7MLX0Z-2">
                    <mxGeometry relative="1" as="geometry">
                        <mxPoint x="170" y="120" as="targetPoint"/>
                    </mxGeometry>
                </mxCell>
                <mxCell id="tRbnyI7l5Zz59n7MLX0Z-2" value="이름" style="ellipse;whiteSpace=wrap;html=1;align=center;" vertex="1" parent="1">
                    <mxGeometry x="-120" y="-60" width="100" height="40" as="geometry"/>
                </mxCell>
                <mxCell id="tRbnyI7l5Zz59n7MLX0Z-7" style="edgeStyle=none;html=1;entryX=0;entryY=0.5;entryDx=0;entryDy=0;endArrow=none;endFill=0;exitX=1;exitY=0.5;exitDx=0;exitDy=0;" edge="1" parent="1" source="tRbnyI7l5Zz59n7MLX0Z-3">
                    <mxGeometry relative="1" as="geometry">
                        <mxPoint x="170" y="120" as="targetPoint"/>
                    </mxGeometry>
                </mxCell>
                <mxCell id="tRbnyI7l5Zz59n7MLX0Z-3" value="학번" style="ellipse;whiteSpace=wrap;html=1;align=center;fontStyle=4;" vertex="1" parent="1">
                    <mxGeometry x="10" y="-70" width="100" height="40" as="geometry"/>
                </mxCell>
                <mxCell id="tRbnyI7l5Zz59n7MLX0Z-9" style="edgeStyle=none;html=1;entryX=0;entryY=0.5;entryDx=0;entryDy=0;endArrow=none;endFill=0;" edge="1" parent="1" source="tRbnyI7l5Zz59n7MLX0Z-4">
                    <mxGeometry relative="1" as="geometry">
                        <mxPoint x="170" y="120" as="targetPoint"/>
                    </mxGeometry>
                </mxCell>
                <mxCell id="tRbnyI7l5Zz59n7MLX0Z-4" value="키" style="ellipse;whiteSpace=wrap;html=1;align=center;" vertex="1" parent="1">
                    <mxGeometry x="-150" y="10" width="100" height="40" as="geometry"/>
                </mxCell>
                <mxCell id="tRbnyI7l5Zz59n7MLX0Z-10" style="edgeStyle=none;html=1;entryX=0;entryY=0.5;entryDx=0;entryDy=0;endArrow=none;endFill=0;exitX=1;exitY=0.5;exitDx=0;exitDy=0;" edge="1" parent="1" source="gRS09DkV2t1ea3CDnBU3-1">
                    <mxGeometry relative="1" as="geometry">
                        <mxPoint x="92" y="101" as="sourcePoint"/>
                        <mxPoint x="170" y="120" as="targetPoint"/>
                    </mxGeometry>
                </mxCell>
                <mxCell id="tRbnyI7l5Zz59n7MLX0Z-11" value="학과" style="whiteSpace=wrap;html=1;align=center;" vertex="1" parent="1">
                    <mxGeometry x="580" y="100" width="100" height="40" as="geometry"/>
                </mxCell>
                <mxCell id="tRbnyI7l5Zz59n7MLX0Z-16" style="edgeStyle=none;html=1;entryX=1;entryY=0.5;entryDx=0;entryDy=0;endArrow=none;endFill=0;" edge="1" parent="1" source="tRbnyI7l5Zz59n7MLX0Z-12" target="tRbnyI7l5Zz59n7MLX0Z-11">
                    <mxGeometry relative="1" as="geometry"/>
                </mxCell>
                <mxCell id="tRbnyI7l5Zz59n7MLX0Z-12" value="학과코드" style="ellipse;whiteSpace=wrap;html=1;align=center;fontStyle=4;" vertex="1" parent="1">
                    <mxGeometry x="750" y="110" width="100" height="40" as="geometry"/>
                </mxCell>
                <mxCell id="tRbnyI7l5Zz59n7MLX0Z-15" style="edgeStyle=none;html=1;entryX=1;entryY=0.5;entryDx=0;entryDy=0;endArrow=none;endFill=0;" edge="1" parent="1" target="tRbnyI7l5Zz59n7MLX0Z-11">
                    <mxGeometry relative="1" as="geometry">
                        <mxPoint x="761.5889360201365" y="92.80368799328744" as="sourcePoint"/>
                    </mxGeometry>
                </mxCell>
                <mxCell id="tRbnyI7l5Zz59n7MLX0Z-18" value="N" style="text;html=1;align=center;verticalAlign=middle;resizable=0;points=[];autosize=1;strokeColor=none;fillColor=none;" vertex="1" parent="1">
                    <mxGeometry x="265" y="116" width="30" height="30" as="geometry"/>
                </mxCell>
                <mxCell id="tRbnyI7l5Zz59n7MLX0Z-20" value="교수" style="whiteSpace=wrap;html=1;align=center;" vertex="1" parent="1">
                    <mxGeometry x="580" y="360" width="100" height="40" as="geometry"/>
                </mxCell>
                <mxCell id="tRbnyI7l5Zz59n7MLX0Z-24" style="edgeStyle=none;html=1;entryX=1;entryY=0.5;entryDx=0;entryDy=0;endArrow=none;endFill=0;" edge="1" parent="1" source="tRbnyI7l5Zz59n7MLX0Z-22" target="tRbnyI7l5Zz59n7MLX0Z-20">
                    <mxGeometry relative="1" as="geometry"/>
                </mxCell>
                <mxCell id="tRbnyI7l5Zz59n7MLX0Z-22" value="교수코드" style="ellipse;whiteSpace=wrap;html=1;align=center;fontStyle=4;" vertex="1" parent="1">
                    <mxGeometry x="750" y="360" width="100" height="40" as="geometry"/>
                </mxCell>
                <mxCell id="tRbnyI7l5Zz59n7MLX0Z-25" style="edgeStyle=none;html=1;entryX=1;entryY=0.5;entryDx=0;entryDy=0;endArrow=none;endFill=0;" edge="1" parent="1" source="tRbnyI7l5Zz59n7MLX0Z-23" target="tRbnyI7l5Zz59n7MLX0Z-20">
                    <mxGeometry relative="1" as="geometry"/>
                </mxCell>
                <mxCell id="tRbnyI7l5Zz59n7MLX0Z-23" value="교수명" style="ellipse;whiteSpace=wrap;html=1;align=center;" vertex="1" parent="1">
                    <mxGeometry x="750" y="410" width="100" height="40" as="geometry"/>
                </mxCell>
                <mxCell id="tRbnyI7l5Zz59n7MLX0Z-27" value="과목" style="whiteSpace=wrap;html=1;align=center;" vertex="1" parent="1">
                    <mxGeometry x="170" y="360" width="100" height="40" as="geometry"/>
                </mxCell>
                <mxCell id="tRbnyI7l5Zz59n7MLX0Z-28" style="edgeStyle=none;html=1;entryX=0;entryY=0.5;entryDx=0;entryDy=0;endArrow=none;endFill=0;" edge="1" source="tRbnyI7l5Zz59n7MLX0Z-29" parent="1">
                    <mxGeometry relative="1" as="geometry">
                        <mxPoint x="170" y="380" as="targetPoint"/>
                    </mxGeometry>
                </mxCell>
                <mxCell id="tRbnyI7l5Zz59n7MLX0Z-29" value="시작일" style="ellipse;whiteSpace=wrap;html=1;align=center;" vertex="1" parent="1">
                    <mxGeometry x="-150" y="500" width="100" height="40" as="geometry"/>
                </mxCell>
                <mxCell id="tRbnyI7l5Zz59n7MLX0Z-30" style="edgeStyle=none;html=1;entryX=0;entryY=0.5;entryDx=0;entryDy=0;endArrow=none;endFill=0;" edge="1" source="tRbnyI7l5Zz59n7MLX0Z-31" parent="1">
                    <mxGeometry relative="1" as="geometry">
                        <mxPoint x="170" y="380" as="targetPoint"/>
                    </mxGeometry>
                </mxCell>
                <mxCell id="tRbnyI7l5Zz59n7MLX0Z-31" value="과목코드" style="ellipse;whiteSpace=wrap;html=1;align=center;fontStyle=4;" vertex="1" parent="1">
                    <mxGeometry x="-230" y="380" width="100" height="40" as="geometry"/>
                </mxCell>
                <mxCell id="tRbnyI7l5Zz59n7MLX0Z-32" style="edgeStyle=none;html=1;entryX=0;entryY=0.5;entryDx=0;entryDy=0;exitX=1;exitY=0;exitDx=0;exitDy=0;endArrow=none;endFill=0;" edge="1" source="tRbnyI7l5Zz59n7MLX0Z-33" parent="1">
                    <mxGeometry relative="1" as="geometry">
                        <mxPoint x="170" y="380" as="targetPoint"/>
                    </mxGeometry>
                </mxCell>
                <mxCell id="tRbnyI7l5Zz59n7MLX0Z-33" value="종료일" style="ellipse;whiteSpace=wrap;html=1;align=center;" vertex="1" parent="1">
                    <mxGeometry x="-20" y="510" width="100" height="40" as="geometry"/>
                </mxCell>
                <mxCell id="tRbnyI7l5Zz59n7MLX0Z-38" style="edgeStyle=none;html=1;endArrow=none;endFill=0;exitX=1;exitY=0.5;exitDx=0;exitDy=0;" edge="1" parent="1" source="gRS09DkV2t1ea3CDnBU3-4">
                    <mxGeometry relative="1" as="geometry">
                        <mxPoint x="170" y="380" as="targetPoint"/>
                        <mxPoint x="78.27641777758072" y="433.50542296307776" as="sourcePoint"/>
                    </mxGeometry>
                </mxCell>
                <mxCell id="tRbnyI7l5Zz59n7MLX0Z-40" value="" style="endArrow=none;html=1;rounded=0;exitX=0.5;exitY=1;exitDx=0;exitDy=0;entryX=0.5;entryY=0;entryDx=0;entryDy=0;" edge="1" parent="1" source="tRbnyI7l5Zz59n7MLX0Z-11" target="tRbnyI7l5Zz59n7MLX0Z-20">
                    <mxGeometry relative="1" as="geometry">
                        <mxPoint x="380" y="300" as="sourcePoint"/>
                        <mxPoint x="540" y="300" as="targetPoint"/>
                    </mxGeometry>
                </mxCell>
                <mxCell id="tRbnyI7l5Zz59n7MLX0Z-41" value="M" style="resizable=0;html=1;whiteSpace=wrap;align=left;verticalAlign=bottom;" connectable="0" vertex="1" parent="tRbnyI7l5Zz59n7MLX0Z-40">
                    <mxGeometry x="-1" relative="1" as="geometry">
                        <mxPoint y="17" as="offset"/>
                    </mxGeometry>
                </mxCell>
                <mxCell id="tRbnyI7l5Zz59n7MLX0Z-42" value="1" style="resizable=0;html=1;whiteSpace=wrap;align=right;verticalAlign=bottom;" connectable="0" vertex="1" parent="tRbnyI7l5Zz59n7MLX0Z-40">
                    <mxGeometry x="1" relative="1" as="geometry"/>
                </mxCell>
                <mxCell id="tRbnyI7l5Zz59n7MLX0Z-43" value="" style="endArrow=none;html=1;rounded=0;exitX=1;exitY=0.5;exitDx=0;exitDy=0;entryX=0;entryY=0.5;entryDx=0;entryDy=0;" edge="1" parent="1" source="gRS09DkV2t1ea3CDnBU3-11" target="tRbnyI7l5Zz59n7MLX0Z-20">
                    <mxGeometry relative="1" as="geometry">
                        <mxPoint x="380" y="300" as="sourcePoint"/>
                        <mxPoint x="540" y="300" as="targetPoint"/>
                    </mxGeometry>
                </mxCell>
                <mxCell id="tRbnyI7l5Zz59n7MLX0Z-45" value="N" style="resizable=0;html=1;whiteSpace=wrap;align=right;verticalAlign=bottom;" connectable="0" vertex="1" parent="tRbnyI7l5Zz59n7MLX0Z-43">
                    <mxGeometry x="1" relative="1" as="geometry"/>
                </mxCell>
                <mxCell id="tRbnyI7l5Zz59n7MLX0Z-46" value="" style="endArrow=none;html=1;rounded=0;exitX=0.5;exitY=1;exitDx=0;exitDy=0;entryX=0.5;entryY=0;entryDx=0;entryDy=0;" edge="1" parent="1" source="tRbnyI7l5Zz59n7MLX0Z-1" target="tRbnyI7l5Zz59n7MLX0Z-27">
                    <mxGeometry relative="1" as="geometry">
                        <mxPoint x="380" y="300" as="sourcePoint"/>
                        <mxPoint x="540" y="300" as="targetPoint"/>
                    </mxGeometry>
                </mxCell>
                <mxCell id="tRbnyI7l5Zz59n7MLX0Z-47" value="M" style="resizable=0;html=1;whiteSpace=wrap;align=left;verticalAlign=bottom;" connectable="0" vertex="1" parent="tRbnyI7l5Zz59n7MLX0Z-46">
                    <mxGeometry x="-1" relative="1" as="geometry">
                        <mxPoint y="19" as="offset"/>
                    </mxGeometry>
                </mxCell>
                <mxCell id="tRbnyI7l5Zz59n7MLX0Z-48" value="N" style="resizable=0;html=1;whiteSpace=wrap;align=right;verticalAlign=bottom;" connectable="0" vertex="1" parent="tRbnyI7l5Zz59n7MLX0Z-46">
                    <mxGeometry x="1" relative="1" as="geometry"/>
                </mxCell>
                <mxCell id="gRS09DkV2t1ea3CDnBU3-6" style="edgeStyle=none;html=1;entryX=1;entryY=0.5;entryDx=0;entryDy=0;endArrow=none;endFill=0;" edge="1" parent="1" source="6lahtFzuluqSf0B63Gfs-2" target="gRS09DkV2t1ea3CDnBU3-5">
                    <mxGeometry relative="1" as="geometry"/>
                </mxCell>
                <mxCell id="6lahtFzuluqSf0B63Gfs-2" value="수강" style="shape=rhombus;perimeter=rhombusPerimeter;whiteSpace=wrap;html=1;align=center;" vertex="1" parent="1">
                    <mxGeometry x="160" y="210" width="120" height="60" as="geometry"/>
                </mxCell>
                <mxCell id="6lahtFzuluqSf0B63Gfs-10" style="edgeStyle=none;html=1;endArrow=none;endFill=0;" edge="1" parent="1" source="6lahtFzuluqSf0B63Gfs-6">
                    <mxGeometry relative="1" as="geometry">
                        <mxPoint x="160" y="240" as="targetPoint"/>
                    </mxGeometry>
                </mxCell>
                <mxCell id="6lahtFzuluqSf0B63Gfs-6" value="수강번호" style="ellipse;whiteSpace=wrap;html=1;align=center;fontStyle=4;" vertex="1" parent="1">
                    <mxGeometry x="10" y="210" width="100" height="40" as="geometry"/>
                </mxCell>
                <mxCell id="gRS09DkV2t1ea3CDnBU3-1" value="학과코드" style="ellipse;whiteSpace=wrap;html=1;align=center;fontStyle=4;" vertex="1" parent="1">
                    <mxGeometry x="-190" y="80" width="100" height="40" as="geometry"/>
                </mxCell>
                <mxCell id="gRS09DkV2t1ea3CDnBU3-3" value="학과명" style="ellipse;whiteSpace=wrap;html=1;align=center;" vertex="1" parent="1">
                    <mxGeometry x="750" y="60" width="100" height="40" as="geometry"/>
                </mxCell>
                <mxCell id="gRS09DkV2t1ea3CDnBU3-4" value="과목명" style="ellipse;whiteSpace=wrap;html=1;align=center;" vertex="1" parent="1">
                    <mxGeometry x="-220" y="450" width="100" height="40" as="geometry"/>
                </mxCell>
                <mxCell id="gRS09DkV2t1ea3CDnBU3-5" value="수강일자" style="ellipse;whiteSpace=wrap;html=1;align=center;" vertex="1" parent="1">
                    <mxGeometry y="270" width="100" height="40" as="geometry"/>
                </mxCell>
                <mxCell id="gRS09DkV2t1ea3CDnBU3-7" value="소속" style="shape=rhombus;perimeter=rhombusPerimeter;whiteSpace=wrap;html=1;align=center;" vertex="1" parent="1">
                    <mxGeometry x="570" y="210" width="120" height="60" as="geometry"/>
                </mxCell>
                <mxCell id="gRS09DkV2t1ea3CDnBU3-9" value="" style="edgeStyle=none;html=1;entryX=0;entryY=0.5;entryDx=0;entryDy=0;endArrow=none;endFill=0;" edge="1" parent="1" target="gRS09DkV2t1ea3CDnBU3-8">
                    <mxGeometry relative="1" as="geometry">
                        <mxPoint x="270" y="119.5" as="sourcePoint"/>
                        <mxPoint x="580" y="119.5" as="targetPoint"/>
                    </mxGeometry>
                </mxCell>
                <mxCell id="gRS09DkV2t1ea3CDnBU3-8" value="소속" style="shape=rhombus;perimeter=rhombusPerimeter;whiteSpace=wrap;html=1;align=center;" vertex="1" parent="1">
                    <mxGeometry x="380" y="90" width="120" height="60" as="geometry"/>
                </mxCell>
                <mxCell id="gRS09DkV2t1ea3CDnBU3-12" value="" style="endArrow=none;html=1;rounded=0;exitX=1;exitY=0.5;exitDx=0;exitDy=0;entryX=0;entryY=0.5;entryDx=0;entryDy=0;" edge="1" parent="1" source="tRbnyI7l5Zz59n7MLX0Z-27" target="gRS09DkV2t1ea3CDnBU3-11">
                    <mxGeometry relative="1" as="geometry">
                        <mxPoint x="270" y="380" as="sourcePoint"/>
                        <mxPoint x="580" y="380" as="targetPoint"/>
                    </mxGeometry>
                </mxCell>
                <mxCell id="gRS09DkV2t1ea3CDnBU3-13" value="1" style="resizable=0;html=1;whiteSpace=wrap;align=left;verticalAlign=bottom;" connectable="0" vertex="1" parent="gRS09DkV2t1ea3CDnBU3-12">
                    <mxGeometry x="-1" relative="1" as="geometry"/>
                </mxCell>
                <mxCell id="gRS09DkV2t1ea3CDnBU3-11" value="강의" style="shape=rhombus;perimeter=rhombusPerimeter;whiteSpace=wrap;html=1;align=center;" vertex="1" parent="1">
                    <mxGeometry x="380" y="350" width="120" height="60" as="geometry"/>
                </mxCell>
                <mxCell id="B-98aJ9wveX0qtuPyAaq-2" style="edgeStyle=none;html=1;" edge="1" parent="1" source="B-98aJ9wveX0qtuPyAaq-1">
                    <mxGeometry relative="1" as="geometry">
                        <mxPoint x="160" y="240" as="targetPoint"/>
                    </mxGeometry>
                </mxCell>
                <mxCell id="B-98aJ9wveX0qtuPyAaq-1" value="학점" style="ellipse;whiteSpace=wrap;html=1;align=center;" vertex="1" parent="1">
                    <mxGeometry x="10" y="150" width="100" height="40" as="geometry"/>
                </mxCell>
            </root>
        </mxGraphModel>
    </diagram>
    <diagram id="TP9xho4rVAwIKV0c_uDx" name="학사릴레이션">
        <mxGraphModel dx="2100" dy="787" grid="1" gridSize="10" guides="1" tooltips="1" connect="1" arrows="1" fold="1" page="1" pageScale="1" pageWidth="850" pageHeight="1100" math="0" shadow="0">
            <root>
                <mxCell id="0"/>
                <mxCell id="1" parent="0"/>
                <mxCell id="TaZEaggadpTZP2gdGrvu-1" value="학생" style="shape=table;startSize=30;container=1;collapsible=1;childLayout=tableLayout;fixedRows=1;rowLines=0;fontStyle=1;align=center;resizeLast=1;html=1;whiteSpace=wrap;" vertex="1" parent="1">
                    <mxGeometry x="20" y="40" width="180" height="150" as="geometry"/>
                </mxCell>
                <mxCell id="TaZEaggadpTZP2gdGrvu-2" value="" style="shape=tableRow;horizontal=0;startSize=0;swimlaneHead=0;swimlaneBody=0;fillColor=none;collapsible=0;dropTarget=0;points=[[0,0.5],[1,0.5]];portConstraint=eastwest;top=0;left=0;right=0;bottom=0;html=1;" vertex="1" parent="TaZEaggadpTZP2gdGrvu-1">
                    <mxGeometry y="30" width="180" height="30" as="geometry"/>
                </mxCell>
                <mxCell id="TaZEaggadpTZP2gdGrvu-3" value="PK" style="shape=partialRectangle;connectable=0;fillColor=none;top=0;left=0;bottom=0;right=0;fontStyle=1;overflow=hidden;html=1;whiteSpace=wrap;" vertex="1" parent="TaZEaggadpTZP2gdGrvu-2">
                    <mxGeometry width="60" height="30" as="geometry">
                        <mxRectangle width="60" height="30" as="alternateBounds"/>
                    </mxGeometry>
                </mxCell>
                <mxCell id="TaZEaggadpTZP2gdGrvu-4" value="학번" style="shape=partialRectangle;connectable=0;fillColor=none;top=0;left=0;bottom=0;right=0;align=left;spacingLeft=6;fontStyle=5;overflow=hidden;html=1;whiteSpace=wrap;" vertex="1" parent="TaZEaggadpTZP2gdGrvu-2">
                    <mxGeometry x="60" width="120" height="30" as="geometry">
                        <mxRectangle width="120" height="30" as="alternateBounds"/>
                    </mxGeometry>
                </mxCell>
                <mxCell id="TaZEaggadpTZP2gdGrvu-5" value="" style="shape=tableRow;horizontal=0;startSize=0;swimlaneHead=0;swimlaneBody=0;fillColor=none;collapsible=0;dropTarget=0;points=[[0,0.5],[1,0.5]];portConstraint=eastwest;top=0;left=0;right=0;bottom=1;html=1;" vertex="1" parent="TaZEaggadpTZP2gdGrvu-1">
                    <mxGeometry y="60" width="180" height="30" as="geometry"/>
                </mxCell>
                <mxCell id="TaZEaggadpTZP2gdGrvu-6" value="FK" style="shape=partialRectangle;connectable=0;fillColor=none;top=0;left=0;bottom=0;right=0;fontStyle=1;overflow=hidden;html=1;whiteSpace=wrap;" vertex="1" parent="TaZEaggadpTZP2gdGrvu-5">
                    <mxGeometry width="60" height="30" as="geometry">
                        <mxRectangle width="60" height="30" as="alternateBounds"/>
                    </mxGeometry>
                </mxCell>
                <mxCell id="TaZEaggadpTZP2gdGrvu-7" value="학과코드" style="shape=partialRectangle;connectable=0;fillColor=none;top=0;left=0;bottom=0;right=0;align=left;spacingLeft=6;fontStyle=5;overflow=hidden;html=1;whiteSpace=wrap;" vertex="1" parent="TaZEaggadpTZP2gdGrvu-5">
                    <mxGeometry x="60" width="120" height="30" as="geometry">
                        <mxRectangle width="120" height="30" as="alternateBounds"/>
                    </mxGeometry>
                </mxCell>
                <mxCell id="TaZEaggadpTZP2gdGrvu-8" value="" style="shape=tableRow;horizontal=0;startSize=0;swimlaneHead=0;swimlaneBody=0;fillColor=none;collapsible=0;dropTarget=0;points=[[0,0.5],[1,0.5]];portConstraint=eastwest;top=0;left=0;right=0;bottom=0;html=1;" vertex="1" parent="TaZEaggadpTZP2gdGrvu-1">
                    <mxGeometry y="90" width="180" height="30" as="geometry"/>
                </mxCell>
                <mxCell id="TaZEaggadpTZP2gdGrvu-9" value="" style="shape=partialRectangle;connectable=0;fillColor=none;top=0;left=0;bottom=0;right=0;editable=1;overflow=hidden;html=1;whiteSpace=wrap;" vertex="1" parent="TaZEaggadpTZP2gdGrvu-8">
                    <mxGeometry width="60" height="30" as="geometry">
                        <mxRectangle width="60" height="30" as="alternateBounds"/>
                    </mxGeometry>
                </mxCell>
                <mxCell id="TaZEaggadpTZP2gdGrvu-10" value="이름" style="shape=partialRectangle;connectable=0;fillColor=none;top=0;left=0;bottom=0;right=0;align=left;spacingLeft=6;overflow=hidden;html=1;whiteSpace=wrap;" vertex="1" parent="TaZEaggadpTZP2gdGrvu-8">
                    <mxGeometry x="60" width="120" height="30" as="geometry">
                        <mxRectangle width="120" height="30" as="alternateBounds"/>
                    </mxGeometry>
                </mxCell>
                <mxCell id="TaZEaggadpTZP2gdGrvu-11" value="" style="shape=tableRow;horizontal=0;startSize=0;swimlaneHead=0;swimlaneBody=0;fillColor=none;collapsible=0;dropTarget=0;points=[[0,0.5],[1,0.5]];portConstraint=eastwest;top=0;left=0;right=0;bottom=0;html=1;" vertex="1" parent="TaZEaggadpTZP2gdGrvu-1">
                    <mxGeometry y="120" width="180" height="30" as="geometry"/>
                </mxCell>
                <mxCell id="TaZEaggadpTZP2gdGrvu-12" value="" style="shape=partialRectangle;connectable=0;fillColor=none;top=0;left=0;bottom=0;right=0;editable=1;overflow=hidden;html=1;whiteSpace=wrap;" vertex="1" parent="TaZEaggadpTZP2gdGrvu-11">
                    <mxGeometry width="60" height="30" as="geometry">
                        <mxRectangle width="60" height="30" as="alternateBounds"/>
                    </mxGeometry>
                </mxCell>
                <mxCell id="TaZEaggadpTZP2gdGrvu-13" value="키" style="shape=partialRectangle;connectable=0;fillColor=none;top=0;left=0;bottom=0;right=0;align=left;spacingLeft=6;overflow=hidden;html=1;whiteSpace=wrap;" vertex="1" parent="TaZEaggadpTZP2gdGrvu-11">
                    <mxGeometry x="60" width="120" height="30" as="geometry">
                        <mxRectangle width="120" height="30" as="alternateBounds"/>
                    </mxGeometry>
                </mxCell>
                <mxCell id="SJidT5m3cuaZarTxeWEc-1" value="교수" style="shape=table;startSize=30;container=1;collapsible=1;childLayout=tableLayout;fixedRows=1;rowLines=0;fontStyle=1;align=center;resizeLast=1;html=1;whiteSpace=wrap;" vertex="1" parent="1">
                    <mxGeometry x="560" y="480" width="180" height="120" as="geometry"/>
                </mxCell>
                <mxCell id="SJidT5m3cuaZarTxeWEc-2" value="" style="shape=tableRow;horizontal=0;startSize=0;swimlaneHead=0;swimlaneBody=0;fillColor=none;collapsible=0;dropTarget=0;points=[[0,0.5],[1,0.5]];portConstraint=eastwest;top=0;left=0;right=0;bottom=0;html=1;" vertex="1" parent="SJidT5m3cuaZarTxeWEc-1">
                    <mxGeometry y="30" width="180" height="30" as="geometry"/>
                </mxCell>
                <mxCell id="SJidT5m3cuaZarTxeWEc-3" value="PK" style="shape=partialRectangle;connectable=0;fillColor=none;top=0;left=0;bottom=0;right=0;fontStyle=1;overflow=hidden;html=1;whiteSpace=wrap;" vertex="1" parent="SJidT5m3cuaZarTxeWEc-2">
                    <mxGeometry width="60" height="30" as="geometry">
                        <mxRectangle width="60" height="30" as="alternateBounds"/>
                    </mxGeometry>
                </mxCell>
                <mxCell id="SJidT5m3cuaZarTxeWEc-4" value="교수코드" style="shape=partialRectangle;connectable=0;fillColor=none;top=0;left=0;bottom=0;right=0;align=left;spacingLeft=6;fontStyle=5;overflow=hidden;html=1;whiteSpace=wrap;" vertex="1" parent="SJidT5m3cuaZarTxeWEc-2">
                    <mxGeometry x="60" width="120" height="30" as="geometry">
                        <mxRectangle width="120" height="30" as="alternateBounds"/>
                    </mxGeometry>
                </mxCell>
                <mxCell id="SJidT5m3cuaZarTxeWEc-5" value="" style="shape=tableRow;horizontal=0;startSize=0;swimlaneHead=0;swimlaneBody=0;fillColor=none;collapsible=0;dropTarget=0;points=[[0,0.5],[1,0.5]];portConstraint=eastwest;top=0;left=0;right=0;bottom=1;html=1;" vertex="1" parent="SJidT5m3cuaZarTxeWEc-1">
                    <mxGeometry y="60" width="180" height="30" as="geometry"/>
                </mxCell>
                <mxCell id="SJidT5m3cuaZarTxeWEc-6" value="FK" style="shape=partialRectangle;connectable=0;fillColor=none;top=0;left=0;bottom=0;right=0;fontStyle=1;overflow=hidden;html=1;whiteSpace=wrap;" vertex="1" parent="SJidT5m3cuaZarTxeWEc-5">
                    <mxGeometry width="60" height="30" as="geometry">
                        <mxRectangle width="60" height="30" as="alternateBounds"/>
                    </mxGeometry>
                </mxCell>
                <mxCell id="SJidT5m3cuaZarTxeWEc-7" value="학과코드" style="shape=partialRectangle;connectable=0;fillColor=none;top=0;left=0;bottom=0;right=0;align=left;spacingLeft=6;fontStyle=5;overflow=hidden;html=1;whiteSpace=wrap;" vertex="1" parent="SJidT5m3cuaZarTxeWEc-5">
                    <mxGeometry x="60" width="120" height="30" as="geometry">
                        <mxRectangle width="120" height="30" as="alternateBounds"/>
                    </mxGeometry>
                </mxCell>
                <mxCell id="SJidT5m3cuaZarTxeWEc-8" value="" style="shape=tableRow;horizontal=0;startSize=0;swimlaneHead=0;swimlaneBody=0;fillColor=none;collapsible=0;dropTarget=0;points=[[0,0.5],[1,0.5]];portConstraint=eastwest;top=0;left=0;right=0;bottom=0;html=1;" vertex="1" parent="SJidT5m3cuaZarTxeWEc-1">
                    <mxGeometry y="90" width="180" height="30" as="geometry"/>
                </mxCell>
                <mxCell id="SJidT5m3cuaZarTxeWEc-9" value="" style="shape=partialRectangle;connectable=0;fillColor=none;top=0;left=0;bottom=0;right=0;editable=1;overflow=hidden;html=1;whiteSpace=wrap;" vertex="1" parent="SJidT5m3cuaZarTxeWEc-8">
                    <mxGeometry width="60" height="30" as="geometry">
                        <mxRectangle width="60" height="30" as="alternateBounds"/>
                    </mxGeometry>
                </mxCell>
                <mxCell id="SJidT5m3cuaZarTxeWEc-10" value="교수명" style="shape=partialRectangle;connectable=0;fillColor=none;top=0;left=0;bottom=0;right=0;align=left;spacingLeft=6;overflow=hidden;html=1;whiteSpace=wrap;" vertex="1" parent="SJidT5m3cuaZarTxeWEc-8">
                    <mxGeometry x="60" width="120" height="30" as="geometry">
                        <mxRectangle width="120" height="30" as="alternateBounds"/>
                    </mxGeometry>
                </mxCell>
                <mxCell id="h5tw9RjhO1PU622WMeEm-11" style="edgeStyle=none;html=1;exitX=0;exitY=0.5;exitDx=0;exitDy=0;entryX=0;entryY=0.5;entryDx=0;entryDy=0;" edge="1" parent="1" source="SJidT5m3cuaZarTxeWEc-15" target="TaZEaggadpTZP2gdGrvu-2">
                    <mxGeometry relative="1" as="geometry">
                        <mxPoint x="-50" y="270" as="targetPoint"/>
                        <Array as="points">
                            <mxPoint x="-150" y="310"/>
                        </Array>
                    </mxGeometry>
                </mxCell>
                <mxCell id="SJidT5m3cuaZarTxeWEc-14" value="과목" style="shape=table;startSize=30;container=1;collapsible=1;childLayout=tableLayout;fixedRows=1;rowLines=0;fontStyle=1;align=center;resizeLast=1;html=1;whiteSpace=wrap;" vertex="1" parent="1">
                    <mxGeometry x="20" y="480" width="180" height="180" as="geometry"/>
                </mxCell>
                <mxCell id="SJidT5m3cuaZarTxeWEc-15" value="" style="shape=tableRow;horizontal=0;startSize=0;swimlaneHead=0;swimlaneBody=0;fillColor=none;collapsible=0;dropTarget=0;points=[[0,0.5],[1,0.5]];portConstraint=eastwest;top=0;left=0;right=0;bottom=0;html=1;" vertex="1" parent="SJidT5m3cuaZarTxeWEc-14">
                    <mxGeometry y="30" width="180" height="30" as="geometry"/>
                </mxCell>
                <mxCell id="SJidT5m3cuaZarTxeWEc-16" value="PK" style="shape=partialRectangle;connectable=0;fillColor=none;top=0;left=0;bottom=0;right=0;fontStyle=1;overflow=hidden;html=1;whiteSpace=wrap;" vertex="1" parent="SJidT5m3cuaZarTxeWEc-15">
                    <mxGeometry width="60" height="30" as="geometry">
                        <mxRectangle width="60" height="30" as="alternateBounds"/>
                    </mxGeometry>
                </mxCell>
                <mxCell id="SJidT5m3cuaZarTxeWEc-17" value="과목코드" style="shape=partialRectangle;connectable=0;fillColor=none;top=0;left=0;bottom=0;right=0;align=left;spacingLeft=6;fontStyle=5;overflow=hidden;html=1;whiteSpace=wrap;" vertex="1" parent="SJidT5m3cuaZarTxeWEc-15">
                    <mxGeometry x="60" width="120" height="30" as="geometry">
                        <mxRectangle width="120" height="30" as="alternateBounds"/>
                    </mxGeometry>
                </mxCell>
                <mxCell id="SJidT5m3cuaZarTxeWEc-18" value="" style="shape=tableRow;horizontal=0;startSize=0;swimlaneHead=0;swimlaneBody=0;fillColor=none;collapsible=0;dropTarget=0;points=[[0,0.5],[1,0.5]];portConstraint=eastwest;top=0;left=0;right=0;bottom=1;html=1;" vertex="1" parent="SJidT5m3cuaZarTxeWEc-14">
                    <mxGeometry y="60" width="180" height="30" as="geometry"/>
                </mxCell>
                <mxCell id="SJidT5m3cuaZarTxeWEc-19" value="FK" style="shape=partialRectangle;connectable=0;fillColor=none;top=0;left=0;bottom=0;right=0;fontStyle=1;overflow=hidden;html=1;whiteSpace=wrap;" vertex="1" parent="SJidT5m3cuaZarTxeWEc-18">
                    <mxGeometry width="60" height="30" as="geometry">
                        <mxRectangle width="60" height="30" as="alternateBounds"/>
                    </mxGeometry>
                </mxCell>
                <mxCell id="SJidT5m3cuaZarTxeWEc-20" value="교수코드" style="shape=partialRectangle;connectable=0;fillColor=none;top=0;left=0;bottom=0;right=0;align=left;spacingLeft=6;fontStyle=5;overflow=hidden;html=1;whiteSpace=wrap;" vertex="1" parent="SJidT5m3cuaZarTxeWEc-18">
                    <mxGeometry x="60" width="120" height="30" as="geometry">
                        <mxRectangle width="120" height="30" as="alternateBounds"/>
                    </mxGeometry>
                </mxCell>
                <mxCell id="SJidT5m3cuaZarTxeWEc-21" value="" style="shape=tableRow;horizontal=0;startSize=0;swimlaneHead=0;swimlaneBody=0;fillColor=none;collapsible=0;dropTarget=0;points=[[0,0.5],[1,0.5]];portConstraint=eastwest;top=0;left=0;right=0;bottom=0;html=1;" vertex="1" parent="SJidT5m3cuaZarTxeWEc-14">
                    <mxGeometry y="90" width="180" height="30" as="geometry"/>
                </mxCell>
                <mxCell id="SJidT5m3cuaZarTxeWEc-22" value="" style="shape=partialRectangle;connectable=0;fillColor=none;top=0;left=0;bottom=0;right=0;editable=1;overflow=hidden;html=1;whiteSpace=wrap;" vertex="1" parent="SJidT5m3cuaZarTxeWEc-21">
                    <mxGeometry width="60" height="30" as="geometry">
                        <mxRectangle width="60" height="30" as="alternateBounds"/>
                    </mxGeometry>
                </mxCell>
                <mxCell id="SJidT5m3cuaZarTxeWEc-23" value="과목" style="shape=partialRectangle;connectable=0;fillColor=none;top=0;left=0;bottom=0;right=0;align=left;spacingLeft=6;overflow=hidden;html=1;whiteSpace=wrap;" vertex="1" parent="SJidT5m3cuaZarTxeWEc-21">
                    <mxGeometry x="60" width="120" height="30" as="geometry">
                        <mxRectangle width="120" height="30" as="alternateBounds"/>
                    </mxGeometry>
                </mxCell>
                <mxCell id="SJidT5m3cuaZarTxeWEc-24" value="" style="shape=tableRow;horizontal=0;startSize=0;swimlaneHead=0;swimlaneBody=0;fillColor=none;collapsible=0;dropTarget=0;points=[[0,0.5],[1,0.5]];portConstraint=eastwest;top=0;left=0;right=0;bottom=0;html=1;" vertex="1" parent="SJidT5m3cuaZarTxeWEc-14">
                    <mxGeometry y="120" width="180" height="30" as="geometry"/>
                </mxCell>
                <mxCell id="SJidT5m3cuaZarTxeWEc-25" value="" style="shape=partialRectangle;connectable=0;fillColor=none;top=0;left=0;bottom=0;right=0;editable=1;overflow=hidden;html=1;whiteSpace=wrap;" vertex="1" parent="SJidT5m3cuaZarTxeWEc-24">
                    <mxGeometry width="60" height="30" as="geometry">
                        <mxRectangle width="60" height="30" as="alternateBounds"/>
                    </mxGeometry>
                </mxCell>
                <mxCell id="SJidT5m3cuaZarTxeWEc-26" value="시작일" style="shape=partialRectangle;connectable=0;fillColor=none;top=0;left=0;bottom=0;right=0;align=left;spacingLeft=6;overflow=hidden;html=1;whiteSpace=wrap;" vertex="1" parent="SJidT5m3cuaZarTxeWEc-24">
                    <mxGeometry x="60" width="120" height="30" as="geometry">
                        <mxRectangle width="120" height="30" as="alternateBounds"/>
                    </mxGeometry>
                </mxCell>
                <mxCell id="Nm1BCqGPyWwUcEV6MsC6-1" value="" style="shape=tableRow;horizontal=0;startSize=0;swimlaneHead=0;swimlaneBody=0;fillColor=none;collapsible=0;dropTarget=0;points=[[0,0.5],[1,0.5]];portConstraint=eastwest;top=0;left=0;right=0;bottom=0;html=1;" vertex="1" parent="SJidT5m3cuaZarTxeWEc-14">
                    <mxGeometry y="150" width="180" height="30" as="geometry"/>
                </mxCell>
                <mxCell id="Nm1BCqGPyWwUcEV6MsC6-2" value="" style="shape=partialRectangle;connectable=0;fillColor=none;top=0;left=0;bottom=0;right=0;editable=1;overflow=hidden;html=1;whiteSpace=wrap;" vertex="1" parent="Nm1BCqGPyWwUcEV6MsC6-1">
                    <mxGeometry width="60" height="30" as="geometry">
                        <mxRectangle width="60" height="30" as="alternateBounds"/>
                    </mxGeometry>
                </mxCell>
                <mxCell id="Nm1BCqGPyWwUcEV6MsC6-3" value="종료일" style="shape=partialRectangle;connectable=0;fillColor=none;top=0;left=0;bottom=0;right=0;align=left;spacingLeft=6;overflow=hidden;html=1;whiteSpace=wrap;" vertex="1" parent="Nm1BCqGPyWwUcEV6MsC6-1">
                    <mxGeometry x="60" width="120" height="30" as="geometry">
                        <mxRectangle width="120" height="30" as="alternateBounds"/>
                    </mxGeometry>
                </mxCell>
                <mxCell id="DQ95c-b4SDvbCDT2CeyH-1" value="수강" style="shape=table;startSize=30;container=1;collapsible=1;childLayout=tableLayout;fixedRows=1;rowLines=0;fontStyle=1;align=center;resizeLast=1;html=1;whiteSpace=wrap;" vertex="1" parent="1">
                    <mxGeometry x="300" y="240" width="180" height="180" as="geometry"/>
                </mxCell>
                <mxCell id="pkPwI-aIkmXN9DzMRqCn-11" value="" style="shape=tableRow;horizontal=0;startSize=0;swimlaneHead=0;swimlaneBody=0;fillColor=none;collapsible=0;dropTarget=0;points=[[0,0.5],[1,0.5]];portConstraint=eastwest;top=0;left=0;right=0;bottom=1;html=1;" vertex="1" parent="DQ95c-b4SDvbCDT2CeyH-1">
                    <mxGeometry y="30" width="180" height="30" as="geometry"/>
                </mxCell>
                <mxCell id="pkPwI-aIkmXN9DzMRqCn-12" value="PK,FK2" style="shape=partialRectangle;connectable=0;fillColor=none;top=0;left=0;bottom=0;right=0;fontStyle=1;overflow=hidden;html=1;whiteSpace=wrap;" vertex="1" parent="pkPwI-aIkmXN9DzMRqCn-11">
                    <mxGeometry width="60" height="30" as="geometry">
                        <mxRectangle width="60" height="30" as="alternateBounds"/>
                    </mxGeometry>
                </mxCell>
                <mxCell id="pkPwI-aIkmXN9DzMRqCn-13" value="수강번호" style="shape=partialRectangle;connectable=0;fillColor=none;top=0;left=0;bottom=0;right=0;align=left;spacingLeft=6;fontStyle=5;overflow=hidden;html=1;whiteSpace=wrap;" vertex="1" parent="pkPwI-aIkmXN9DzMRqCn-11">
                    <mxGeometry x="60" width="120" height="30" as="geometry">
                        <mxRectangle width="120" height="30" as="alternateBounds"/>
                    </mxGeometry>
                </mxCell>
                <mxCell id="DQ95c-b4SDvbCDT2CeyH-2" value="" style="shape=tableRow;horizontal=0;startSize=0;swimlaneHead=0;swimlaneBody=0;fillColor=none;collapsible=0;dropTarget=0;points=[[0,0.5],[1,0.5]];portConstraint=eastwest;top=0;left=0;right=0;bottom=0;html=1;" vertex="1" parent="DQ95c-b4SDvbCDT2CeyH-1">
                    <mxGeometry y="60" width="180" height="30" as="geometry"/>
                </mxCell>
                <mxCell id="DQ95c-b4SDvbCDT2CeyH-3" value="FK1" style="shape=partialRectangle;connectable=0;fillColor=none;top=0;left=0;bottom=0;right=0;fontStyle=1;overflow=hidden;html=1;whiteSpace=wrap;" vertex="1" parent="DQ95c-b4SDvbCDT2CeyH-2">
                    <mxGeometry width="60" height="30" as="geometry">
                        <mxRectangle width="60" height="30" as="alternateBounds"/>
                    </mxGeometry>
                </mxCell>
                <mxCell id="DQ95c-b4SDvbCDT2CeyH-4" value="학번" style="shape=partialRectangle;connectable=0;fillColor=none;top=0;left=0;bottom=0;right=0;align=left;spacingLeft=6;fontStyle=5;overflow=hidden;html=1;whiteSpace=wrap;" vertex="1" parent="DQ95c-b4SDvbCDT2CeyH-2">
                    <mxGeometry x="60" width="120" height="30" as="geometry">
                        <mxRectangle width="120" height="30" as="alternateBounds"/>
                    </mxGeometry>
                </mxCell>
                <mxCell id="DQ95c-b4SDvbCDT2CeyH-5" value="" style="shape=tableRow;horizontal=0;startSize=0;swimlaneHead=0;swimlaneBody=0;fillColor=none;collapsible=0;dropTarget=0;points=[[0,0.5],[1,0.5]];portConstraint=eastwest;top=0;left=0;right=0;bottom=1;html=1;" vertex="1" parent="DQ95c-b4SDvbCDT2CeyH-1">
                    <mxGeometry y="90" width="180" height="30" as="geometry"/>
                </mxCell>
                <mxCell id="DQ95c-b4SDvbCDT2CeyH-6" value="FK2" style="shape=partialRectangle;connectable=0;fillColor=none;top=0;left=0;bottom=0;right=0;fontStyle=1;overflow=hidden;html=1;whiteSpace=wrap;" vertex="1" parent="DQ95c-b4SDvbCDT2CeyH-5">
                    <mxGeometry width="60" height="30" as="geometry">
                        <mxRectangle width="60" height="30" as="alternateBounds"/>
                    </mxGeometry>
                </mxCell>
                <mxCell id="DQ95c-b4SDvbCDT2CeyH-7" value="과목코드" style="shape=partialRectangle;connectable=0;fillColor=none;top=0;left=0;bottom=0;right=0;align=left;spacingLeft=6;fontStyle=5;overflow=hidden;html=1;whiteSpace=wrap;" vertex="1" parent="DQ95c-b4SDvbCDT2CeyH-5">
                    <mxGeometry x="60" width="120" height="30" as="geometry">
                        <mxRectangle width="120" height="30" as="alternateBounds"/>
                    </mxGeometry>
                </mxCell>
                <mxCell id="DQ95c-b4SDvbCDT2CeyH-8" value="" style="shape=tableRow;horizontal=0;startSize=0;swimlaneHead=0;swimlaneBody=0;fillColor=none;collapsible=0;dropTarget=0;points=[[0,0.5],[1,0.5]];portConstraint=eastwest;top=0;left=0;right=0;bottom=0;html=1;" vertex="1" parent="DQ95c-b4SDvbCDT2CeyH-1">
                    <mxGeometry y="120" width="180" height="30" as="geometry"/>
                </mxCell>
                <mxCell id="DQ95c-b4SDvbCDT2CeyH-9" value="" style="shape=partialRectangle;connectable=0;fillColor=none;top=0;left=0;bottom=0;right=0;editable=1;overflow=hidden;html=1;whiteSpace=wrap;" vertex="1" parent="DQ95c-b4SDvbCDT2CeyH-8">
                    <mxGeometry width="60" height="30" as="geometry">
                        <mxRectangle width="60" height="30" as="alternateBounds"/>
                    </mxGeometry>
                </mxCell>
                <mxCell id="DQ95c-b4SDvbCDT2CeyH-10" value="수강일자" style="shape=partialRectangle;connectable=0;fillColor=none;top=0;left=0;bottom=0;right=0;align=left;spacingLeft=6;overflow=hidden;html=1;whiteSpace=wrap;" vertex="1" parent="DQ95c-b4SDvbCDT2CeyH-8">
                    <mxGeometry x="60" width="120" height="30" as="geometry">
                        <mxRectangle width="120" height="30" as="alternateBounds"/>
                    </mxGeometry>
                </mxCell>
                <mxCell id="DQ95c-b4SDvbCDT2CeyH-11" value="" style="shape=tableRow;horizontal=0;startSize=0;swimlaneHead=0;swimlaneBody=0;fillColor=none;collapsible=0;dropTarget=0;points=[[0,0.5],[1,0.5]];portConstraint=eastwest;top=0;left=0;right=0;bottom=0;html=1;" vertex="1" parent="DQ95c-b4SDvbCDT2CeyH-1">
                    <mxGeometry y="150" width="180" height="30" as="geometry"/>
                </mxCell>
                <mxCell id="DQ95c-b4SDvbCDT2CeyH-12" value="" style="shape=partialRectangle;connectable=0;fillColor=none;top=0;left=0;bottom=0;right=0;editable=1;overflow=hidden;html=1;whiteSpace=wrap;" vertex="1" parent="DQ95c-b4SDvbCDT2CeyH-11">
                    <mxGeometry width="60" height="30" as="geometry">
                        <mxRectangle width="60" height="30" as="alternateBounds"/>
                    </mxGeometry>
                </mxCell>
                <mxCell id="DQ95c-b4SDvbCDT2CeyH-13" value="학점" style="shape=partialRectangle;connectable=0;fillColor=none;top=0;left=0;bottom=0;right=0;align=left;spacingLeft=6;overflow=hidden;html=1;whiteSpace=wrap;" vertex="1" parent="DQ95c-b4SDvbCDT2CeyH-11">
                    <mxGeometry x="60" width="120" height="30" as="geometry">
                        <mxRectangle width="120" height="30" as="alternateBounds"/>
                    </mxGeometry>
                </mxCell>
                <mxCell id="h5tw9RjhO1PU622WMeEm-8" style="edgeStyle=none;html=1;entryX=0.5;entryY=0;entryDx=0;entryDy=0;exitX=1;exitY=0.5;exitDx=0;exitDy=0;endArrow=ERoneToMany;endFill=0;" edge="1" parent="1" source="pkPwI-aIkmXN9DzMRqCn-5" target="SJidT5m3cuaZarTxeWEc-1">
                    <mxGeometry relative="1" as="geometry">
                        <Array as="points">
                            <mxPoint x="810" y="240"/>
                        </Array>
                    </mxGeometry>
                </mxCell>
                <mxCell id="pkPwI-aIkmXN9DzMRqCn-1" value="학과" style="shape=table;startSize=30;container=1;collapsible=1;childLayout=tableLayout;fixedRows=1;rowLines=0;fontStyle=1;align=center;resizeLast=1;html=1;whiteSpace=wrap;" vertex="1" parent="1">
                    <mxGeometry x="560" y="40" width="180" height="90" as="geometry"/>
                </mxCell>
                <mxCell id="pkPwI-aIkmXN9DzMRqCn-5" value="" style="shape=tableRow;horizontal=0;startSize=0;swimlaneHead=0;swimlaneBody=0;fillColor=none;collapsible=0;dropTarget=0;points=[[0,0.5],[1,0.5]];portConstraint=eastwest;top=0;left=0;right=0;bottom=1;html=1;" vertex="1" parent="pkPwI-aIkmXN9DzMRqCn-1">
                    <mxGeometry y="30" width="180" height="30" as="geometry"/>
                </mxCell>
                <mxCell id="pkPwI-aIkmXN9DzMRqCn-6" value="PK" style="shape=partialRectangle;connectable=0;fillColor=none;top=0;left=0;bottom=0;right=0;fontStyle=1;overflow=hidden;html=1;whiteSpace=wrap;" vertex="1" parent="pkPwI-aIkmXN9DzMRqCn-5">
                    <mxGeometry width="60" height="30" as="geometry">
                        <mxRectangle width="60" height="30" as="alternateBounds"/>
                    </mxGeometry>
                </mxCell>
                <mxCell id="pkPwI-aIkmXN9DzMRqCn-7" value="학과코드" style="shape=partialRectangle;connectable=0;fillColor=none;top=0;left=0;bottom=0;right=0;align=left;spacingLeft=6;fontStyle=5;overflow=hidden;html=1;whiteSpace=wrap;" vertex="1" parent="pkPwI-aIkmXN9DzMRqCn-5">
                    <mxGeometry x="60" width="120" height="30" as="geometry">
                        <mxRectangle width="120" height="30" as="alternateBounds"/>
                    </mxGeometry>
                </mxCell>
                <mxCell id="pkPwI-aIkmXN9DzMRqCn-8" value="" style="shape=tableRow;horizontal=0;startSize=0;swimlaneHead=0;swimlaneBody=0;fillColor=none;collapsible=0;dropTarget=0;points=[[0,0.5],[1,0.5]];portConstraint=eastwest;top=0;left=0;right=0;bottom=0;html=1;" vertex="1" parent="pkPwI-aIkmXN9DzMRqCn-1">
                    <mxGeometry y="60" width="180" height="30" as="geometry"/>
                </mxCell>
                <mxCell id="pkPwI-aIkmXN9DzMRqCn-9" value="" style="shape=partialRectangle;connectable=0;fillColor=none;top=0;left=0;bottom=0;right=0;editable=1;overflow=hidden;html=1;whiteSpace=wrap;" vertex="1" parent="pkPwI-aIkmXN9DzMRqCn-8">
                    <mxGeometry width="60" height="30" as="geometry">
                        <mxRectangle width="60" height="30" as="alternateBounds"/>
                    </mxGeometry>
                </mxCell>
                <mxCell id="pkPwI-aIkmXN9DzMRqCn-10" value="학과명" style="shape=partialRectangle;connectable=0;fillColor=none;top=0;left=0;bottom=0;right=0;align=left;spacingLeft=6;overflow=hidden;html=1;whiteSpace=wrap;" vertex="1" parent="pkPwI-aIkmXN9DzMRqCn-8">
                    <mxGeometry x="60" width="120" height="30" as="geometry">
                        <mxRectangle width="120" height="30" as="alternateBounds"/>
                    </mxGeometry>
                </mxCell>
                <mxCell id="h5tw9RjhO1PU622WMeEm-7" style="edgeStyle=none;html=1;entryX=0;entryY=0.5;entryDx=0;entryDy=0;exitX=1;exitY=0.5;exitDx=0;exitDy=0;endArrow=none;endFill=0;startArrow=ERoneToMany;startFill=0;" edge="1" parent="1" source="TaZEaggadpTZP2gdGrvu-5" target="pkPwI-aIkmXN9DzMRqCn-5">
                    <mxGeometry relative="1" as="geometry"/>
                </mxCell>
                <mxCell id="h5tw9RjhO1PU622WMeEm-10" style="edgeStyle=none;html=1;entryX=1;entryY=0.5;entryDx=0;entryDy=0;exitX=0;exitY=0.5;exitDx=0;exitDy=0;endArrow=ERoneToMany;endFill=0;" edge="1" parent="1" source="SJidT5m3cuaZarTxeWEc-2" target="SJidT5m3cuaZarTxeWEc-18">
                    <mxGeometry relative="1" as="geometry"/>
                </mxCell>
                <mxCell id="h5tw9RjhO1PU622WMeEm-14" style="edgeStyle=none;html=1;entryX=0;entryY=0.5;entryDx=0;entryDy=0;exitX=1;exitY=0.5;exitDx=0;exitDy=0;endArrow=ERoneToMany;endFill=0;" edge="1" parent="1" source="TaZEaggadpTZP2gdGrvu-2" target="DQ95c-b4SDvbCDT2CeyH-2">
                    <mxGeometry relative="1" as="geometry"/>
                </mxCell>
                <mxCell id="h5tw9RjhO1PU622WMeEm-15" style="edgeStyle=none;html=1;entryX=0;entryY=0.5;entryDx=0;entryDy=0;exitX=1;exitY=0.5;exitDx=0;exitDy=0;endArrow=ERoneToMany;endFill=0;" edge="1" parent="1" source="SJidT5m3cuaZarTxeWEc-15" target="DQ95c-b4SDvbCDT2CeyH-5">
                    <mxGeometry relative="1" as="geometry"/>
                </mxCell>
            </root>
        </mxGraphModel>
    </diagram>
</mxfile>